# Blender v2.91.2 OBJ File: 'Pillar.blend'
# www.blender.org
mtllib Pillar.mtl
o Pillar_Cube.001
v -1.000000 0.000000 -1.000000
v -1.000000 0.500000 -1.000000
v 1.000000 0.000000 -1.000000
v 1.000000 0.500000 -1.000000
v -1.000000 0.000000 1.000000
v -1.000000 0.500000 1.000000
v 1.000000 0.000000 1.000000
v 1.000000 0.500000 1.000000
v -0.500000 0.800000 -0.500000
v 0.500000 0.800000 -0.500000
v 0.500000 0.800000 0.500000
v -0.500000 0.800000 0.500000
v -0.500000 7.200000 -0.500000
v -0.500000 7.200000 0.500000
v -1.000000 8.000000 -1.000000
v -1.000000 7.500000 -1.000000
v 1.000000 8.000000 -1.000000
v 1.000000 7.500000 -1.000000
v -1.000000 8.000000 1.000000
v -1.000000 7.500000 1.000000
v 1.000000 8.000000 1.000000
v 1.000000 7.500000 1.000000
v 0.500000 7.200000 -0.500000
v 0.500000 7.200000 0.500000
vt 0.375000 0.000000
vt 0.625000 0.000000
vt 0.625000 0.250000
vt 0.375000 0.250000
vt 0.625000 0.500000
vt 0.375000 0.500000
vt 0.625000 0.750000
vt 0.375000 0.750000
vt 0.625000 1.000000
vt 0.375000 1.000000
vt 0.125000 0.500000
vt 0.125000 0.750000
vt 0.625000 0.250000
vt 0.625000 0.500000
vt 0.625000 0.750000
vt 0.625000 0.500000
vt 0.625000 0.750000
vt 0.625000 0.000000
vt 0.625000 1.000000
vt 0.625000 0.000000
vt 0.625000 0.250000
vt 0.625000 1.000000
vt 0.375000 0.000000
vt 0.625000 0.000000
vt 0.625000 0.250000
vt 0.375000 0.250000
vt 0.625000 0.500000
vt 0.375000 0.500000
vt 0.625000 0.750000
vt 0.375000 0.750000
vt 0.625000 1.000000
vt 0.375000 1.000000
vt 0.125000 0.500000
vt 0.125000 0.750000
vn 0.0000 0.0000 -1.0000
vn 1.0000 0.0000 0.0000
vn 0.0000 0.0000 1.0000
vn -1.0000 0.0000 0.0000
vn 0.0000 -1.0000 0.0000
vn 0.5145 0.8575 0.0000
vn 0.0000 0.8575 0.5145
vn 0.0000 0.8575 -0.5145
vn -0.5145 0.8575 0.0000
usemtl None
s off
f 1/1/1 2/2/1 4/3/1 3/4/1
f 3/4/2 4/3/2 8/5/2 7/6/2
f 7/6/3 8/5/3 6/7/3 5/8/3
f 5/8/4 6/7/4 2/9/4 1/10/4
f 3/11/5 7/6/5 5/8/5 1/12/5
f 8/5/6 4/3/6 10/13/6 11/14/6
f 12/15/3 11/14/3 24/16/3 14/17/3
f 6/7/7 8/5/7 11/14/7 12/15/7
f 4/3/8 2/2/8 9/18/8 10/13/8
f 2/9/9 6/7/9 12/15/9 9/19/9
f 10/13/1 9/18/1 13/20/1 23/21/1
f 9/19/4 12/15/4 14/17/4 13/22/4
f 11/14/2 10/13/2 23/21/2 24/16/2
f 15/23/3 16/24/3 18/25/3 17/26/3
f 17/26/4 18/25/4 22/27/4 21/28/4
f 21/28/1 22/27/1 20/29/1 19/30/1
f 19/30/2 20/29/2 16/31/2 15/32/2
f 17/33/5 21/28/5 19/30/5 15/34/5
f 22/27/9 18/25/9 23/21/9 24/16/9
f 20/29/8 22/27/8 24/16/8 14/17/8
f 18/25/7 16/24/7 13/20/7 23/21/7
f 16/31/6 20/29/6 14/17/6 13/22/6
