# Blender v2.91.2 OBJ File: 'Staircase.blend'
# www.blender.org
mtllib Staircase.mtl
o Cube_Cube.001
v 0.000000 0.000000 0.000000
v 0.000000 8.000000 0.000000
v 10.000000 0.000000 0.000000
v 10.000000 8.000000 0.000000
v 0.000000 0.000000 10.000000
v 0.000000 8.000000 10.000000
v 10.000000 0.000000 10.000000
v 10.000000 8.000000 10.000000
v 9.000000 0.000000 0.000000
v 1.000000 0.000000 0.000000
v 1.000000 8.000000 0.000000
v 9.000001 8.000000 0.000000
v 1.000000 0.000000 10.000000
v 9.000001 0.000000 10.000000
v 9.000000 8.000000 10.000000
v 1.000000 8.000000 10.000000
v 1.000000 8.000000 0.000000
v 9.000001 8.000000 0.000000
v 1.000000 8.000000 1.000000
v 9.000001 8.000000 1.000000
v 1.000000 7.000000 1.000000
v 9.000001 7.000000 1.000000
v 1.000000 7.000000 2.000000
v 9.000001 7.000000 2.000000
v 1.000000 6.000000 2.000000
v 9.000001 6.000000 2.000000
v 1.000000 6.000000 3.000000
v 9.000001 6.000000 3.000000
v 1.000000 5.000000 3.000000
v 9.000001 5.000000 3.000000
v 1.000000 5.000000 4.000000
v 9.000001 5.000000 4.000000
v 1.000000 4.000000 4.000000
v 9.000001 4.000000 4.000000
v 1.000000 4.000000 5.000000
v 9.000001 4.000000 5.000000
v 1.000000 3.000000 5.000000
v 9.000001 3.000000 5.000000
v 1.000000 3.000000 6.000000
v 9.000001 3.000000 6.000000
v 1.000000 2.000000 6.000000
v 9.000001 2.000000 6.000000
v 1.000000 2.000000 7.000000
v 9.000001 2.000000 7.000000
v 1.000000 1.000000 7.000000
v 9.000001 1.000000 7.000000
v 1.000000 1.000000 8.000000
v 9.000001 1.000000 8.000000
v 1.000000 0.000000 8.000000
v 9.000001 0.000000 8.000000
v 1.000000 0.000000 10.000000
v 9.000001 0.000000 10.000000
vt 0.625000 0.166667
vt 0.375000 0.250000
vt 0.375000 0.166667
vt 0.625000 0.250000
vt 0.375000 0.500000
vt 0.625000 0.666667
vt 0.375000 0.750000
vt 0.375000 0.666667
vt 0.625000 0.750000
vt 0.375000 1.000000
vt 0.125000 0.750000
vt 0.125000 0.666667
vt 0.875000 0.666667
vt 0.875000 0.500000
vt 0.625000 0.583333
vt 0.625000 0.500000
vt 0.625000 0.083333
vt 0.625000 0.166667
vt 0.625000 0.166667
vt 0.125000 0.583333
vt 0.125000 0.500000
vt 0.375000 0.583333
vt 0.625000 0.083333
vt 0.625000 0.000000
vt 0.375000 0.083333
vt 0.375000 0.000000
vt 0.625000 0.083333
vt 0.625000 0.166667
vt 0.625000 0.083333
vt 0.625000 0.166667
vt 0.625000 0.083333
vt 0.625000 0.166667
vt 0.625000 0.083333
vt 0.625000 0.166667
vt 0.625000 0.083333
vt 0.625000 0.166667
vt 0.625000 0.083333
vt 0.625000 0.166667
vt 0.625000 0.083333
vt 0.625000 0.166667
vt 0.625000 0.083333
vt 0.625000 0.166667
vt 0.625000 0.083333
vt 0.625000 0.166667
vt 0.625000 0.083333
vt 0.625000 0.166667
vt 0.625000 0.083333
vt 0.625000 0.166667
vt 0.625000 0.083333
vt 0.625000 0.166667
vt 0.625000 0.083333
vt 0.625000 0.166667
vt 0.625000 0.083333
vt 0.625000 0.166667
vt 0.625000 0.083333
vt 0.625000 0.166667
vt 0.625000 0.083333
vt 0.625000 0.166667
vt 0.625000 1.000000
vt 0.875000 0.750000
vt 0.875000 0.583333
vt 0.625000 0.083333
vn 0.0000 0.0000 -1.0000
vn 1.0000 0.0000 0.0000
vn 0.0000 0.0000 1.0000
vn -1.0000 0.0000 0.0000
vn 0.0000 -1.0000 0.0000
vn 0.0000 1.0000 0.0000
usemtl None
s off
f 12/1/1 3/2/1 9/3/1
f 4/4/2 7/5/2 3/2/2
f 16/6/3 5/7/3 13/8/3
f 6/9/4 1/10/4 5/7/4
f 13/8/5 1/11/5 10/12/5
f 11/13/6 6/9/6 16/6/6
f 4/14/6 15/15/6 8/16/6
f 17/17/6 20/18/6 18/19/6
f 7/5/5 9/20/5 3/21/5
f 9/20/5 13/8/5 10/12/5
f 8/16/3 14/22/3 7/5/3
f 11/23/3 18/19/3 12/1/3
f 2/24/1 10/25/1 1/26/1
f 11/23/1 9/3/1 10/25/1
f 19/27/3 22/28/3 20/18/3
f 21/29/6 24/30/6 22/28/6
f 23/31/3 26/32/3 24/30/3
f 25/33/6 28/34/6 26/32/6
f 27/35/3 30/36/3 28/34/3
f 29/37/6 32/38/6 30/36/6
f 31/39/3 34/40/3 32/38/3
f 33/41/6 36/42/6 34/40/6
f 35/43/3 38/44/3 36/42/3
f 37/45/6 40/46/6 38/44/6
f 39/47/3 42/48/3 40/46/3
f 41/49/6 44/50/6 42/48/6
f 43/51/3 46/52/3 44/50/3
f 45/53/6 48/54/6 46/52/6
f 47/55/3 50/56/3 48/54/3
f 49/57/6 52/58/6 50/56/6
f 16/6/2 39/47/2 35/43/2
f 15/15/4 32/38/4 36/42/4
f 12/1/1 4/4/1 3/2/1
f 4/4/2 8/16/2 7/5/2
f 16/6/3 6/9/3 5/7/3
f 6/9/4 2/59/4 1/10/4
f 13/8/5 5/7/5 1/11/5
f 11/13/6 2/60/6 6/9/6
f 4/14/6 12/61/6 15/15/6
f 17/17/6 19/27/6 20/18/6
f 7/5/5 14/22/5 9/20/5
f 9/20/5 14/22/5 13/8/5
f 8/16/3 15/15/3 14/22/3
f 11/23/3 17/17/3 18/19/3
f 2/24/1 11/23/1 10/25/1
f 11/23/1 12/1/1 9/3/1
f 19/27/3 21/29/3 22/28/3
f 21/29/6 23/31/6 24/30/6
f 23/31/3 25/33/3 26/32/3
f 25/33/6 27/35/6 28/34/6
f 27/35/3 29/37/3 30/36/3
f 29/37/6 31/39/6 32/38/6
f 31/39/3 33/41/3 34/40/3
f 33/41/6 35/43/6 36/42/6
f 35/43/3 37/45/3 38/44/3
f 37/45/6 39/47/6 40/46/6
f 39/47/3 41/49/3 42/48/3
f 41/49/6 43/51/6 44/50/6
f 43/51/3 45/53/3 46/52/3
f 45/53/6 47/55/6 48/54/6
f 47/55/3 49/57/3 50/56/3
f 49/57/6 51/62/6 52/58/6
f 16/6/3 13/8/3 51/62/3
f 51/62/2 49/57/2 47/55/2
f 47/55/2 45/53/2 43/51/2
f 43/51/2 41/49/2 39/47/2
f 39/47/2 37/45/2 35/43/2
f 35/43/2 33/41/2 31/39/2
f 31/39/2 29/37/2 27/35/2
f 27/35/2 25/33/2 23/31/2
f 23/31/2 21/29/2 19/27/2
f 19/27/3 11/13/3 16/6/3
f 31/39/2 27/35/2 16/6/2
f 27/35/2 23/31/2 16/6/2
f 23/31/2 19/27/2 16/6/2
f 16/6/2 51/62/2 47/55/2
f 47/55/2 43/51/2 16/6/2
f 43/51/2 39/47/2 16/6/2
f 35/43/2 31/39/2 16/6/2
f 15/15/5 12/61/5 20/18/5
f 20/18/4 22/28/4 24/30/4
f 24/30/4 26/32/4 28/34/4
f 28/34/4 30/36/4 32/38/4
f 32/38/4 34/40/4 36/42/4
f 36/42/4 38/44/4 40/46/4
f 40/46/4 42/48/4 44/50/4
f 44/50/4 46/52/4 48/54/4
f 50/56/3 52/58/3 14/22/3
f 14/22/4 15/15/4 48/54/4
f 15/15/4 20/18/4 24/30/4
f 24/30/4 28/34/4 15/15/4
f 28/34/4 32/38/4 15/15/4
f 48/54/4 50/56/4 14/22/4
f 36/42/4 40/46/4 15/15/4
f 40/46/4 44/50/4 15/15/4
f 44/50/4 48/54/4 15/15/4
