# Blender v2.91.2 OBJ File: ''
# www.blender.org
mtllib Crate.mtl
o Caisse
v 1000.000122 -0.000119 1000.000122
v 900.000122 -170.710800 1000.000122
v 1000.000122 -1000.000122 1000.000122
v 900.000122 -900.000122 1000.000122
v 0.000119 -1000.000122 1000.000122
v 170.710800 -900.000122 1000.000122
v 100.000114 -829.289429 1000.000122
v 0.000119 -0.000119 1000.000122
v 100.000114 -100.000114 1000.000122
v 829.289429 -100.000114 1000.000122
v 900.000122 -170.710800 990.000122
v 900.000122 -900.000122 990.000122
v 170.710800 -900.000122 990.000122
v 100.000114 -829.289429 990.000122
v 100.000114 -100.000114 990.000122
v 829.289429 -100.000114 990.000122
v 829.289429 -0.000119 100.000114
v 100.000114 -0.000119 829.289429
v 170.710800 -0.000119 900.000122
v 1000.000122 -0.000119 0.000119
v 900.000122 -0.000119 170.710800
v 900.000122 -0.000119 900.000122
v 0.000119 -0.000119 0.000119
v 100.000114 -0.000119 100.000114
v 1000.000122 -1000.000122 0.000119
v 900.000122 -829.289429 0.000119
v 900.000122 -100.000114 0.000119
v 829.289429 -900.000122 0.000119
v 100.000114 -170.710800 0.000119
v 170.710800 -100.000114 0.000119
v 0.000119 -1000.000122 0.000119
v 100.000114 -900.000122 0.000119
v 900.000122 -1000.000122 829.289429
v 900.000122 -1000.000122 100.000114
v 829.289429 -1000.000122 900.000122
v 100.000114 -1000.000122 170.710800
v 170.710800 -1000.000122 100.000114
v 100.000114 -1000.000122 900.000122
v 900.000122 -10.000110 170.710800
v 900.000122 -10.000110 900.000122
v 170.710800 -10.000110 900.000122
v 100.000114 -990.000122 170.710800
v 100.000114 -990.000122 900.000122
v 829.289429 -990.000122 900.000122
v 900.000122 -990.000122 829.289429
v 900.000122 -990.000122 100.000114
v 170.710800 -990.000122 100.000114
v 100.000114 -10.000110 829.289429
v 100.000114 -10.000110 100.000114
v 829.289429 -10.000110 100.000114
v 1000.000122 -100.000114 170.710800
v 1000.000122 -900.000122 829.289429
v 1000.000122 -170.710800 100.000114
v 1000.000122 -829.289429 900.000122
v 1000.000122 -100.000114 900.000122
v 1000.000122 -900.000122 100.000114
v 0.000119 -100.000114 829.289429
v 0.000119 -829.289429 100.000114
v 0.000119 -900.000122 170.710800
v 0.000119 -170.710800 900.000122
v 0.000119 -900.000122 900.000122
v 0.000119 -100.000114 100.000114
v 990.000122 -170.710800 100.000114
v 990.000122 -900.000122 100.000114
v 990.000122 -900.000122 829.289429
v 10.000110 -829.289429 100.000114
v 10.000110 -100.000114 100.000114
v 10.000110 -100.000114 829.289429
v 10.000110 -170.710800 900.000122
v 10.000110 -900.000122 900.000122
v 10.000110 -900.000122 170.710800
v 990.000122 -829.289429 900.000122
v 990.000122 -100.000114 900.000122
v 990.000122 -100.000114 170.710800
v 100.000114 -170.710800 10.000110
v 100.000114 -900.000122 10.000110
v 829.289429 -900.000122 10.000110
v 900.000122 -829.289429 10.000110
v 900.000122 -100.000114 10.000110
v 170.710800 -100.000114 10.000110
vn 0.0000 0.0000 1.0000
vn -1.0000 0.0000 0.0000
vn 0.0000 1.0000 0.0000
vn 0.7071 -0.7071 0.0000
vn 1.0000 0.0000 0.0000
vn 0.0000 -1.0000 0.0000
vn -0.7071 0.7071 0.0000
vn 0.0000 0.0000 -1.0000
vn 0.7071 0.0000 0.7071
vn -0.7071 0.0000 0.7071
vn 0.7071 0.0000 -0.7071
vn -0.7071 0.0000 -0.7071
vn 0.0000 -0.7071 -0.7071
vn 0.0000 0.7071 -0.7071
vn 0.0000 -0.7071 0.7071
vn 0.0000 0.7071 0.7071
vn -0.7071 -0.7071 0.0000
vn 0.7071 0.7071 0.0000
usemtl None
s off
f 1//1 2//1 3//1
f 3//1 2//1 4//1
f 3//1 4//1 5//1
f 4//1 6//1 5//1
f 5//1 6//1 7//1
f 5//1 7//1 8//1
f 8//1 7//1 9//1
f 8//1 9//1 1//1
f 1//1 9//1 10//1
f 1//1 10//1 2//1
f 2//1 10//1 7//1
f 2//1 7//1 6//1
f 11//2 12//2 2//2
f 2//2 12//2 4//2
f 12//3 13//3 4//3
f 4//3 13//3 6//3
f 13//4 11//4 6//4
f 6//4 11//4 2//4
f 11//1 13//1 12//1
f 14//5 15//5 7//5
f 7//5 15//5 9//5
f 15//6 16//6 9//6
f 9//6 16//6 10//6
f 16//7 14//7 10//7
f 10//7 14//7 7//7
f 14//1 16//1 15//1
f 17//3 18//3 19//3
f 20//3 21//3 1//3
f 1//3 21//3 22//3
f 1//3 22//3 8//3
f 22//3 19//3 8//3
f 8//3 19//3 18//3
f 8//3 18//3 23//3
f 23//3 18//3 24//3
f 23//3 24//3 20//3
f 20//3 24//3 17//3
f 20//3 17//3 21//3
f 21//3 17//3 19//3
f 25//8 26//8 20//8
f 20//8 26//8 27//8
f 20//8 27//8 23//8
f 28//8 29//8 30//8
f 27//8 30//8 23//8
f 23//8 30//8 29//8
f 23//8 29//8 31//8
f 31//8 29//8 32//8
f 31//8 32//8 25//8
f 25//8 32//8 28//8
f 25//8 28//8 26//8
f 26//8 28//8 30//8
f 3//6 33//6 25//6
f 25//6 33//6 34//6
f 25//6 34//6 31//6
f 35//6 36//6 37//6
f 34//6 37//6 31//6
f 31//6 37//6 36//6
f 31//6 36//6 5//6
f 5//6 36//6 38//6
f 5//6 38//6 3//6
f 3//6 38//6 35//6
f 3//6 35//6 33//6
f 33//6 35//6 37//6
f 39//2 40//2 21//2
f 21//2 40//2 22//2
f 40//8 41//8 22//8
f 22//8 41//8 19//8
f 41//9 39//9 19//9
f 19//9 39//9 21//9
f 39//3 41//3 40//3
f 42//5 43//5 36//5
f 36//5 43//5 38//5
f 43//8 44//8 38//8
f 38//8 44//8 35//8
f 44//10 42//10 35//10
f 35//10 42//10 36//10
f 42//6 44//6 43//6
f 45//2 46//2 33//2
f 33//2 46//2 34//2
f 46//1 47//1 34//1
f 34//1 47//1 37//1
f 47//11 45//11 37//11
f 37//11 45//11 33//11
f 45//6 47//6 46//6
f 48//5 49//5 18//5
f 18//5 49//5 24//5
f 49//1 50//1 24//1
f 24//1 50//1 17//1
f 50//12 48//12 17//12
f 17//12 48//12 18//12
f 48//3 50//3 49//3
f 51//5 52//5 53//5
f 3//5 54//5 1//5
f 1//5 54//5 55//5
f 1//5 55//5 20//5
f 51//5 54//5 52//5
f 52//5 54//5 3//5
f 52//5 3//5 56//5
f 56//5 3//5 25//5
f 56//5 25//5 53//5
f 53//5 25//5 20//5
f 53//5 20//5 51//5
f 51//5 20//5 55//5
f 57//2 58//2 59//2
f 8//2 60//2 5//2
f 5//2 60//2 61//2
f 5//2 61//2 31//2
f 61//2 59//2 31//2
f 31//2 59//2 58//2
f 31//2 58//2 23//2
f 23//2 58//2 62//2
f 23//2 62//2 8//2
f 8//2 62//2 57//2
f 8//2 57//2 60//2
f 60//2 57//2 59//2
f 63//1 64//1 53//1
f 53//1 64//1 56//1
f 64//3 65//3 56//3
f 56//3 65//3 52//3
f 65//13 63//13 52//13
f 52//13 63//13 53//13
f 63//5 65//5 64//5
f 66//1 67//1 58//1
f 58//1 67//1 62//1
f 67//6 68//6 62//6
f 62//6 68//6 57//6
f 68//14 66//14 57//14
f 57//14 66//14 58//14
f 66//2 68//2 67//2
f 69//8 70//8 60//8
f 60//8 70//8 61//8
f 70//3 71//3 61//3
f 61//3 71//3 59//3
f 71//15 69//15 59//15
f 59//15 69//15 60//15
f 69//2 71//2 70//2
f 72//8 73//8 54//8
f 54//8 73//8 55//8
f 73//6 74//6 55//6
f 55//6 74//6 51//6
f 74//16 72//16 51//16
f 51//16 72//16 54//16
f 72//5 74//5 73//5
f 75//5 76//5 29//5
f 29//5 76//5 32//5
f 76//3 77//3 32//3
f 32//3 77//3 28//3
f 77//17 75//17 28//17
f 28//17 75//17 29//17
f 75//8 77//8 76//8
f 78//2 79//2 26//2
f 26//2 79//2 27//2
f 79//6 80//6 27//6
f 27//6 80//6 30//6
f 80//18 78//18 30//18
f 30//18 78//18 26//18
f 78//8 80//8 79//8
