# Blender v2.91.2 OBJ File: ''
# www.blender.org
mtllib Interrupteur.mtl
o Interrupteur
v 65.000000 -20.000000 1.000000
v 35.000000 -20.000000 1.000000
v 65.000000 -20.500000 1.000000
v 35.000000 -20.500000 1.000000
v 0.000000 -40.000000 1.000000
v 0.000075 -40.037983 1.000824
v 0.437442 -39.600609 6.000000
v 0.000000 -10.000001 1.000000
v 0.437442 -10.399391 6.000000
v 0.000075 -9.962020 1.000824
v 90.000000 -50.000000 1.000000
v 90.037987 -49.999931 1.000824
v 89.600609 -49.562557 6.000000
v 10.000002 -50.000000 1.000000
v 10.399390 -49.562557 6.000000
v 9.962019 -49.999931 1.000824
v 100.000000 -10.000001 1.000000
v 99.999924 -9.962020 1.000824
v 99.562553 -10.399391 6.000000
v 100.000000 -40.000000 1.000000
v 99.562553 -39.600609 6.000000
v 99.999924 -40.037983 1.000824
v 10.000002 0.000000 1.000000
v 9.962019 -0.000073 1.000824
v 10.399390 -0.437444 6.000000
v 90.000000 0.000000 1.000000
v 89.600609 -0.437444 6.000000
v 90.037987 -0.000073 1.000824
v 93.013290 -48.962963 6.000000
v 93.816536 -48.630989 6.000000
v 65.437447 -30.437443 6.000000
v 98.962959 -6.986706 6.000000
v 98.630989 -6.183470 6.000000
v 65.437447 -19.562557 6.000000
v 1.037039 -43.013298 6.000000
v 1.369014 -43.816528 6.000000
v 34.562557 -30.437443 6.000000
v 91.334183 -49.411522 6.000000
v 99.411514 -8.665817 6.000000
v 95.320145 -2.235858 6.000000
v 94.587418 -1.769626 6.000000
v 93.816536 -1.369012 6.000000
v 93.013290 -1.037039 6.000000
v 6.986708 -1.037039 6.000000
v 6.183468 -1.369012 6.000000
v 34.562557 -19.562557 6.000000
v 0.588480 -41.334183 6.000000
v 97.764145 -45.320141 6.000000
v 98.230377 -44.587418 6.000000
v 98.630989 -43.816528 6.000000
v 98.962959 -43.013298 6.000000
v 8.665819 -0.588479 6.000000
v 4.679859 -47.764145 6.000000
v 5.412582 -48.230373 6.000000
v 6.183468 -48.630989 6.000000
v 6.986708 -48.962963 6.000000
v 99.411514 -41.334183 6.000000
v 91.334183 -0.588479 6.000000
v 2.235860 -4.679859 6.000000
v 1.769628 -5.412582 6.000000
v 1.369014 -6.183470 6.000000
v 1.037039 -6.986706 6.000000
v 8.665819 -49.411522 6.000000
v 0.588480 -8.665817 6.000000
v 94.587418 -48.230373 6.000000
v 95.320145 -47.764145 6.000000
v 96.009178 -47.235806 6.000000
v 98.230377 -5.412582 6.000000
v 97.764145 -4.679859 6.000000
v 97.235809 -3.990818 6.000000
v 96.649345 -3.350657 6.000000
v 96.009178 -2.764195 6.000000
v 1.769628 -44.587418 6.000000
v 2.235860 -45.320141 6.000000
v 2.764195 -46.009182 6.000000
v 96.649345 -46.649345 6.000000
v 97.235809 -46.009182 6.000000
v 5.412582 -1.769626 6.000000
v 4.679859 -2.235858 6.000000
v 3.990818 -2.764195 6.000000
v 3.350657 -46.649345 6.000000
v 3.990818 -47.235806 6.000000
v 3.350657 -3.350657 6.000000
v 2.764195 -3.990818 6.000000
v 35.000000 -29.500000 1.000000
v 35.000000 -30.000002 1.000000
v 65.000000 -30.000002 1.000000
v 65.000000 -29.500000 1.000000
v 10.000002 -50.000000 0.000000
v 90.000000 -50.000000 0.000000
v 0.000000 -10.000001 0.000000
v 0.000000 -40.000000 0.000000
v 10.000002 0.000000 0.000000
v 90.000000 0.000000 0.000000
v 100.000000 -40.000000 0.000000
v 100.000000 -10.000001 0.000000
v 99.510567 -6.909831 0.000000
v 91.564339 -0.123117 0.000000
v 99.876877 -41.564346 0.000000
v 99.510567 -43.090172 0.000000
v 99.876877 -8.435656 0.000000
v 0.123117 -8.435656 0.000000
v 0.489436 -6.909831 0.000000
v 98.910065 -44.539906 0.000000
v 98.090172 -45.877853 0.000000
v 91.564339 -49.876884 0.000000
v 95.877853 -48.090172 0.000000
v 94.539909 -48.910065 0.000000
v 93.090172 -49.510563 0.000000
v 4.122149 -1.909830 0.000000
v 5.460094 -1.089934 0.000000
v 6.909832 -0.489436 0.000000
v 98.090172 -4.122148 0.000000
v 94.539909 -1.089934 0.000000
v 97.071068 -2.928933 0.000000
v 95.877853 -1.909830 0.000000
v 93.090172 -0.489436 0.000000
v 98.910065 -5.460094 0.000000
v 8.435656 -0.123117 0.000000
v 2.928931 -2.928933 0.000000
v 97.071068 -47.071068 0.000000
v 1.909830 -45.877853 0.000000
v 1.089934 -44.539906 0.000000
v 8.435656 -49.876884 0.000000
v 0.489436 -43.090172 0.000000
v 0.123117 -41.564346 0.000000
v 1.089934 -5.460094 0.000000
v 1.909830 -4.122148 0.000000
v 6.909832 -49.510563 0.000000
v 5.460094 -48.910065 0.000000
v 2.928931 -47.071068 0.000000
v 4.122149 -48.090172 0.000000
v 63.283234 -20.500000 2.723021
v 63.283234 -29.500000 2.723021
v 61.370010 -20.500000 4.224902
v 61.370010 -29.500000 4.224902
v 59.288620 -20.500000 5.483430
v 59.288620 -29.500000 5.483430
v 65.909904 -29.500000 13.374369
v 65.909904 -20.500000 13.374369
v 62.374367 -29.500000 16.909903
v 62.374367 -20.500000 16.909903
v 51.422939 -29.500000 7.720561
v 51.422939 -20.500000 7.720561
v 48.798382 -20.500000 7.735114
v 48.798382 -29.500000 7.735114
v 46.194519 -20.500000 7.405864
v 46.194519 -29.500000 7.405864
v 43.656193 -20.500000 6.738481
v 43.656193 -29.500000 6.738481
v 41.227112 -20.500000 5.744458
v 41.227112 -29.500000 5.744458
v 38.949116 -20.500000 4.440914
v 38.949116 -29.500000 4.440914
v 36.861427 -20.500000 2.850297
v 36.861427 -29.500000 2.850297
v 8.234434 -0.157095 1.069267
v 8.437071 -0.138678 1.061239
v 6.559979 -0.610312 1.122486
v 6.916433 -0.513831 1.111157
v 3.568892 -2.342269 1.177357
v 4.143000 -1.939554 1.169888
v 4.989039 -1.346083 1.158881
v 5.473741 -1.119068 1.147652
v 2.955582 -2.955580 1.177357
v 2.342269 -3.568892 1.177357
v 1.939554 -4.142998 1.169888
v 1.346085 -4.989041 1.158881
v 1.119066 -5.473741 1.147652
v 0.610311 -6.559979 1.122486
v 0.513833 -6.916433 1.111157
v 0.157095 -8.234434 1.069267
v 0.138678 -8.437071 1.061239
v 0.157095 -41.765568 1.069267
v 0.138678 -41.562931 1.061239
v 0.610311 -43.440022 1.122486
v 0.513833 -43.083569 1.111157
v 2.342269 -46.431110 1.177357
v 1.939554 -45.857006 1.169888
v 1.346085 -45.010963 1.158881
v 1.119066 -44.526260 1.147652
v 2.955582 -47.044418 1.177357
v 3.568892 -47.657730 1.177357
v 4.143000 -48.060448 1.169888
v 4.989039 -48.653915 1.158881
v 5.473741 -48.880936 1.147652
v 6.559979 -49.389690 1.122486
v 6.916433 -49.486168 1.111157
v 8.234434 -49.842907 1.069267
v 8.437071 -49.861324 1.061239
v 99.861320 -41.562931 1.061239
v 99.842903 -41.765568 1.069267
v 99.486176 -43.083569 1.111157
v 99.389687 -43.440022 1.122486
v 98.880928 -44.526260 1.147652
v 98.653915 -45.010963 1.158881
v 98.060448 -45.857006 1.169888
v 97.657730 -46.431110 1.177357
v 97.044426 -47.044418 1.177357
v 96.431107 -47.657730 1.177357
v 95.857002 -48.060448 1.169888
v 95.010963 -48.653915 1.158881
v 94.526260 -48.880936 1.147652
v 93.440025 -49.389690 1.122486
v 93.083565 -49.486168 1.111157
v 91.765564 -49.842907 1.069267
v 91.562927 -49.861324 1.061239
v 99.842903 -8.234434 1.069267
v 99.861320 -8.437071 1.061239
v 99.389687 -6.559979 1.122486
v 99.486176 -6.916433 1.111157
v 97.657730 -3.568892 1.177357
v 98.060448 -4.142998 1.169888
v 98.653915 -4.989041 1.158881
v 98.880928 -5.473741 1.147652
v 97.044426 -2.955580 1.177357
v 96.431107 -2.342269 1.177357
v 95.857002 -1.939554 1.169888
v 95.010963 -1.346083 1.158881
v 94.526260 -1.119068 1.147652
v 93.440025 -0.610312 1.122486
v 93.083565 -0.513831 1.111157
v 91.765564 -0.157095 1.069267
v 91.562927 -0.138678 1.061239
vn 0.0000 0.0000 1.0000
vn -0.9962 -0.0001 0.0872
vn -0.9962 0.0000 0.0872
vn -0.9962 0.0001 0.0872
vn -0.0001 -0.9962 0.0872
vn 0.0000 -0.9962 0.0872
vn 0.0001 -0.9962 0.0872
vn 0.9962 0.0003 0.0872
vn 0.9962 0.0000 0.0872
vn 0.9962 -0.0003 0.0872
vn -0.0000 0.9962 0.0872
vn 0.0000 -1.0000 0.0000
vn -1.0000 0.0000 0.0000
vn 0.0000 1.0000 0.0000
vn 1.0000 0.0000 0.0000
vn 0.0000 0.0000 -1.0000
vn 0.7084 0.0000 0.7058
vn 0.6175 0.0000 0.7866
vn 0.5174 0.0000 0.8557
vn 0.7660 0.0000 -0.6428
vn 0.7071 0.0000 0.7071
vn -0.6428 0.0000 0.7660
vn 0.0055 0.0000 1.0000
vn -0.1254 0.0000 0.9921
vn -0.2543 0.0000 0.9671
vn -0.3787 0.0000 0.9255
vn -0.4967 0.0000 0.8679
vn -0.6060 0.0000 0.7954
vn -0.7050 0.0000 0.7092
vn -0.2334 0.9723 -0.0130
vn -0.0899 0.9958 0.0147
vn -0.0785 0.9968 0.0147
vn -0.0907 0.9959 -0.0034
vn -0.0019 1.0000 0.0000
vn -0.3826 0.9237 -0.0198
vn -0.2605 0.9652 0.0227
vn -0.5737 0.8185 0.0310
vn -0.5223 0.8524 -0.0239
vn -0.4234 0.9055 0.0280
vn -0.7053 0.7053 -0.0724
vn -0.6491 0.7600 0.0319
vn -0.7067 0.7067 0.0320
vn -0.7602 0.6492 -0.0259
vn -0.8185 0.5737 0.0310
vn -0.8524 0.5223 -0.0239
vn -0.9055 0.4235 0.0280
vn -0.9055 0.4234 0.0280
vn -0.9237 0.3826 -0.0198
vn -0.9652 0.2605 0.0227
vn -0.9723 0.2334 -0.0130
vn -0.9958 0.0899 0.0147
vn -0.9969 0.0785 -0.0029
vn -1.0000 0.0020 0.0000
vn -0.9918 0.0864 0.0943
vn -0.9606 0.2566 0.1065
vn -0.9006 0.4191 0.1155
vn -0.9193 0.3799 0.1029
vn -0.9013 0.4196 0.1078
vn -0.8812 0.4580 0.1172
vn -0.8134 0.5690 0.1209
vn -0.8385 0.5335 0.1107
vn -0.8141 0.5696 0.1132
vn -0.7877 0.6040 0.1218
vn -0.7018 0.7018 0.1228
vn -0.7325 0.6710 0.1150
vn -0.7024 0.7024 0.1151
vn -0.6704 0.7318 0.1227
vn -0.5690 0.8134 0.1209
vn -0.6044 0.7883 0.1155
vn -0.5696 0.8141 0.1132
vn -0.5330 0.8376 0.1199
vn -0.4191 0.9006 0.1155
vn -0.4582 0.8817 0.1124
vn -0.4196 0.9013 0.1078
vn -0.3795 0.9182 0.1135
vn -0.2566 0.9606 0.1065
vn -0.0864 0.9918 0.0943
vn -0.9723 -0.2334 -0.0130
vn -0.9958 -0.0899 0.0147
vn -0.9968 -0.0785 0.0147
vn -0.9959 -0.0906 -0.0034
vn -1.0000 -0.0020 0.0000
vn -0.9237 -0.3826 -0.0198
vn -0.9652 -0.2605 0.0227
vn -0.8185 -0.5737 0.0310
vn -0.8524 -0.5223 -0.0239
vn -0.9055 -0.4235 0.0280
vn -0.9055 -0.4234 0.0280
vn -0.7052 -0.7053 -0.0724
vn -0.7600 -0.6491 0.0319
vn -0.7067 -0.7067 0.0320
vn -0.6492 -0.7602 -0.0259
vn -0.5737 -0.8185 0.0310
vn -0.5223 -0.8524 -0.0239
vn -0.4235 -0.9055 0.0280
vn -0.4234 -0.9055 0.0280
vn -0.3826 -0.9237 -0.0198
vn -0.2605 -0.9652 0.0227
vn -0.2334 -0.9723 -0.0130
vn -0.0899 -0.9958 0.0147
vn -0.0785 -0.9969 -0.0029
vn -0.0018 -1.0000 0.0000
vn -0.0864 -0.9918 0.0943
vn -0.2566 -0.9606 0.1065
vn -0.4191 -0.9006 0.1155
vn -0.3799 -0.9193 0.1029
vn -0.4196 -0.9013 0.1078
vn -0.4580 -0.8812 0.1172
vn -0.5690 -0.8134 0.1209
vn -0.5335 -0.8385 0.1107
vn -0.5696 -0.8141 0.1132
vn -0.6040 -0.7877 0.1217
vn -0.7018 -0.7018 0.1228
vn -0.6710 -0.7325 0.1150
vn -0.7024 -0.7024 0.1151
vn -0.7318 -0.6704 0.1227
vn -0.8134 -0.5690 0.1209
vn -0.7883 -0.6044 0.1155
vn -0.8141 -0.5696 0.1132
vn -0.8376 -0.5330 0.1199
vn -0.9006 -0.4191 0.1155
vn -0.8817 -0.4582 0.1124
vn -0.9013 -0.4196 0.1078
vn -0.9182 -0.3795 0.1135
vn -0.9606 -0.2566 0.1065
vn -0.9918 -0.0864 0.0943
vn 0.9918 -0.0864 0.0943
vn 0.9918 -0.0863 0.0943
vn 0.9606 -0.2566 0.1065
vn 0.9006 -0.4191 0.1155
vn 0.9193 -0.3799 0.1029
vn 0.9013 -0.4196 0.1078
vn 0.8812 -0.4580 0.1172
vn 0.8134 -0.5690 0.1209
vn 0.8385 -0.5335 0.1107
vn 0.8141 -0.5696 0.1132
vn 0.7877 -0.6040 0.1218
vn 0.7018 -0.7017 0.1228
vn 0.7325 -0.6710 0.1150
vn 0.7024 -0.7024 0.1151
vn 0.6704 -0.7318 0.1227
vn 0.5690 -0.8134 0.1209
vn 0.6044 -0.7882 0.1155
vn 0.5696 -0.8141 0.1132
vn 0.5330 -0.8376 0.1199
vn 0.4191 -0.9006 0.1155
vn 0.4582 -0.8817 0.1124
vn 0.4196 -0.9013 0.1078
vn 0.3795 -0.9182 0.1135
vn 0.2566 -0.9606 0.1065
vn 0.0864 -0.9918 0.0943
vn 0.2334 -0.9723 -0.0130
vn 0.0899 -0.9958 0.0147
vn 0.0785 -0.9968 0.0147
vn 0.0907 -0.9959 -0.0034
vn 0.0018 -1.0000 0.0000
vn 0.3826 -0.9237 -0.0198
vn 0.2605 -0.9652 0.0227
vn 0.5737 -0.8185 0.0310
vn 0.5223 -0.8524 -0.0239
vn 0.4234 -0.9055 0.0280
vn 0.4235 -0.9055 0.0280
vn 0.7053 -0.7053 -0.0724
vn 0.6491 -0.7600 0.0319
vn 0.7068 -0.7067 0.0320
vn 0.7601 -0.6492 -0.0259
vn 0.8185 -0.5737 0.0310
vn 0.8524 -0.5224 -0.0239
vn 0.9055 -0.4234 0.0280
vn 0.9055 -0.4235 0.0280
vn 0.9237 -0.3826 -0.0198
vn 0.9652 -0.2605 0.0227
vn 0.9723 -0.2334 -0.0130
vn 0.9958 -0.0899 0.0147
vn 0.9969 -0.0785 -0.0029
vn 1.0000 -0.0020 0.0000
vn 0.9723 0.2334 -0.0130
vn 0.9958 0.0899 0.0147
vn 0.9968 0.0785 0.0147
vn 0.9959 0.0906 -0.0034
vn 1.0000 0.0021 0.0000
vn 0.9237 0.3826 -0.0198
vn 0.9652 0.2605 0.0227
vn 0.8185 0.5737 0.0310
vn 0.8524 0.5224 -0.0239
vn 0.9055 0.4234 0.0280
vn 0.9055 0.4235 0.0280
vn 0.7053 0.7052 -0.0724
vn 0.7600 0.6491 0.0319
vn 0.7067 0.7068 0.0320
vn 0.6492 0.7601 -0.0259
vn 0.5737 0.8185 0.0310
vn 0.5223 0.8524 -0.0239
vn 0.4234 0.9055 0.0280
vn 0.4235 0.9055 0.0280
vn 0.3826 0.9237 -0.0198
vn 0.2605 0.9652 0.0227
vn 0.2334 0.9723 -0.0130
vn 0.0899 0.9958 0.0147
vn 0.0785 0.9969 -0.0029
vn 0.0019 1.0000 0.0000
vn 0.0864 0.9918 0.0943
vn 0.2566 0.9606 0.1065
vn 0.4191 0.9006 0.1155
vn 0.3799 0.9193 0.1029
vn 0.4196 0.9013 0.1078
vn 0.4579 0.8812 0.1172
vn 0.5690 0.8134 0.1209
vn 0.5335 0.8385 0.1107
vn 0.5696 0.8141 0.1133
vn 0.6040 0.7877 0.1218
vn 0.7017 0.7018 0.1228
vn 0.6710 0.7325 0.1150
vn 0.7024 0.7024 0.1151
vn 0.7318 0.6704 0.1227
vn 0.8134 0.5690 0.1209
vn 0.7883 0.6044 0.1155
vn 0.8141 0.5696 0.1132
vn 0.8376 0.5330 0.1199
vn 0.9006 0.4191 0.1155
vn 0.8817 0.4582 0.1124
vn 0.9013 0.4196 0.1078
vn 0.9182 0.3795 0.1135
vn 0.9606 0.2566 0.1065
vn 0.9918 0.0863 0.0943
vn 0.9918 0.0864 0.0943
usemtl None
s off
f 1//1 2//1 3//1
f 3//1 2//1 4//1
f 5//2 6//2 7//2
f 5//3 7//3 8//3
f 8//3 7//3 9//3
f 8//4 9//4 10//4
f 11//5 12//5 13//5
f 11//6 13//6 14//6
f 14//6 13//6 15//6
f 14//7 15//7 16//7
f 17//8 18//8 19//8
f 17//9 19//9 20//9
f 20//9 19//9 21//9
f 20//10 21//10 22//10
f 23//11 24//11 25//11
f 23//11 25//11 26//11
f 26//11 25//11 27//11
f 26//11 27//11 28//11
f 29//1 30//1 31//1
f 32//1 33//1 34//1
f 35//1 36//1 37//1
f 29//1 31//1 38//1
f 32//1 34//1 39//1
f 40//1 41//1 34//1
f 34//1 41//1 42//1
f 34//1 42//1 43//1
f 44//1 45//1 46//1
f 35//1 37//1 47//1
f 48//1 49//1 31//1
f 31//1 49//1 50//1
f 31//1 50//1 51//1
f 44//1 46//1 52//1
f 53//1 54//1 37//1
f 37//1 54//1 55//1
f 37//1 55//1 56//1
f 51//1 57//1 31//1
f 31//1 57//1 21//1
f 31//1 21//1 34//1
f 34//1 21//1 19//1
f 34//1 19//1 39//1
f 43//1 58//1 34//1
f 34//1 58//1 27//1
f 34//1 27//1 46//1
f 46//1 27//1 25//1
f 46//1 25//1 52//1
f 59//1 60//1 46//1
f 46//1 60//1 61//1
f 46//1 61//1 62//1
f 56//1 63//1 37//1
f 37//1 63//1 15//1
f 37//1 15//1 31//1
f 31//1 15//1 13//1
f 31//1 13//1 38//1
f 62//1 64//1 46//1
f 46//1 64//1 9//1
f 46//1 9//1 37//1
f 37//1 9//1 7//1
f 37//1 7//1 47//1
f 30//1 65//1 31//1
f 31//1 65//1 66//1
f 31//1 66//1 67//1
f 33//1 68//1 34//1
f 34//1 68//1 69//1
f 34//1 69//1 70//1
f 70//1 71//1 34//1
f 34//1 71//1 72//1
f 34//1 72//1 40//1
f 36//1 73//1 37//1
f 37//1 73//1 74//1
f 37//1 74//1 75//1
f 67//1 76//1 31//1
f 31//1 76//1 77//1
f 31//1 77//1 48//1
f 45//1 78//1 46//1
f 46//1 78//1 79//1
f 46//1 79//1 80//1
f 75//1 81//1 37//1
f 37//1 81//1 82//1
f 37//1 82//1 53//1
f 80//1 83//1 46//1
f 46//1 83//1 84//1
f 46//1 84//1 59//1
f 34//6 46//6 1//6
f 1//6 46//6 2//6
f 2//9 46//9 4//9
f 4//9 46//9 37//9
f 4//9 37//9 85//9
f 85//9 37//9 86//9
f 37//11 31//11 86//11
f 86//11 31//11 87//11
f 88//3 87//3 31//3
f 88//3 31//3 3//3
f 3//3 31//3 34//3
f 3//3 34//3 1//3
f 85//1 86//1 88//1
f 88//1 86//1 87//1
f 89//12 90//12 14//12
f 14//12 90//12 11//12
f 91//13 92//13 8//13
f 8//13 92//13 5//13
f 23//14 26//14 93//14
f 93//14 26//14 94//14
f 95//15 96//15 20//15
f 20//15 96//15 17//15
f 97//16 94//16 98//16
f 99//16 100//16 90//16
f 92//16 90//16 89//16
f 97//16 101//16 94//16
f 94//16 101//16 96//16
f 94//16 96//16 90//16
f 90//16 96//16 95//16
f 90//16 95//16 99//16
f 90//16 92//16 94//16
f 94//16 92//16 91//16
f 94//16 91//16 93//16
f 93//16 91//16 102//16
f 93//16 102//16 103//16
f 100//16 104//16 90//16
f 90//16 104//16 105//16
f 90//16 105//16 106//16
f 107//16 108//16 109//16
f 110//16 111//16 112//16
f 113//16 114//16 115//16
f 115//16 114//16 116//16
f 98//16 117//16 97//16
f 97//16 117//16 114//16
f 97//16 114//16 118//16
f 118//16 114//16 113//16
f 112//16 119//16 110//16
f 110//16 119//16 93//16
f 110//16 93//16 120//16
f 106//16 105//16 109//16
f 109//16 105//16 121//16
f 109//16 121//16 107//16
f 122//16 123//16 124//16
f 124//16 123//16 125//16
f 124//16 125//16 89//16
f 89//16 125//16 126//16
f 89//16 126//16 92//16
f 103//16 127//16 93//16
f 93//16 127//16 128//16
f 93//16 128//16 120//16
f 124//16 129//16 122//16
f 122//16 129//16 130//16
f 122//16 130//16 131//16
f 131//16 130//16 132//16
f 88//17 3//17 133//17
f 88//17 133//17 134//17
f 134//18 133//18 135//18
f 134//18 135//18 136//18
f 136//19 135//19 137//19
f 136//19 137//19 138//19
f 139//20 138//20 140//20
f 140//20 138//20 137//20
f 141//21 139//21 142//21
f 142//21 139//21 140//21
f 143//22 141//22 144//22
f 144//22 141//22 142//22
f 143//23 144//23 145//23
f 143//23 145//23 146//23
f 146//24 145//24 147//24
f 146//24 147//24 148//24
f 148//25 147//25 149//25
f 148//25 149//25 150//25
f 150//26 149//26 151//26
f 150//26 151//26 152//26
f 152//27 151//27 153//27
f 152//27 153//27 154//27
f 154//28 153//28 155//28
f 154//28 155//28 156//28
f 156//29 155//29 4//29
f 156//29 4//29 85//29
f 88//12 134//12 85//12
f 85//12 134//12 136//12
f 85//12 136//12 138//12
f 146//12 85//12 143//12
f 143//12 85//12 138//12
f 143//12 138//12 141//12
f 141//12 138//12 139//12
f 150//12 152//12 154//12
f 146//12 148//12 85//12
f 85//12 148//12 150//12
f 85//12 150//12 156//12
f 156//12 150//12 154//12
f 142//14 140//14 144//14
f 144//14 140//14 137//14
f 3//14 4//14 133//14
f 133//14 4//14 135//14
f 145//14 144//14 4//14
f 4//14 144//14 137//14
f 4//14 137//14 135//14
f 153//14 151//14 149//14
f 4//14 155//14 145//14
f 145//14 155//14 153//14
f 145//14 153//14 147//14
f 147//14 153//14 149//14
f 112//30 157//30 119//30
f 119//31 157//31 158//31
f 119//32 158//32 93//32
f 93//33 158//33 24//33
f 93//34 24//34 23//34
f 111//35 159//35 112//35
f 112//36 159//36 160//36
f 112//36 160//36 157//36
f 161//37 162//37 110//37
f 110//37 162//37 163//37
f 110//38 163//38 111//38
f 111//39 163//39 164//39
f 111//39 164//39 159//39
f 161//40 110//40 165//40
f 165//41 110//41 120//41
f 165//42 120//42 166//42
f 166//43 120//43 128//43
f 166//44 128//44 167//44
f 167//44 128//44 168//44
f 168//45 128//45 127//45
f 168//46 127//46 169//46
f 169//47 127//47 170//47
f 170//48 127//48 103//48
f 170//49 103//49 171//49
f 171//49 103//49 172//49
f 172//50 103//50 102//50
f 172//51 102//51 173//51
f 173//51 102//51 10//51
f 10//52 102//52 91//52
f 10//53 91//53 8//53
f 10//54 9//54 173//54
f 173//54 9//54 64//54
f 173//54 64//54 172//54
f 172//55 64//55 171//55
f 171//55 64//55 62//55
f 171//55 62//55 170//55
f 170//56 62//56 169//56
f 169//57 62//57 61//57
f 169//58 61//58 168//58
f 168//59 61//59 60//59
f 168//60 60//60 167//60
f 167//61 60//61 59//61
f 167//62 59//62 166//62
f 166//63 59//63 84//63
f 166//64 84//64 165//64
f 165//65 84//65 83//65
f 165//66 83//66 161//66
f 161//67 83//67 80//67
f 161//68 80//68 162//68
f 162//69 80//69 79//69
f 162//70 79//70 163//70
f 163//71 79//71 78//71
f 163//72 78//72 164//72
f 164//73 78//73 45//73
f 164//74 45//74 159//74
f 159//75 45//75 44//75
f 159//76 44//76 160//76
f 160//76 44//76 52//76
f 160//76 52//76 157//76
f 157//77 52//77 158//77
f 158//77 52//77 25//77
f 158//77 25//77 24//77
f 125//78 174//78 126//78
f 126//79 174//79 175//79
f 126//80 175//80 92//80
f 92//81 175//81 6//81
f 92//82 6//82 5//82
f 123//83 176//83 125//83
f 125//84 176//84 177//84
f 125//84 177//84 174//84
f 178//85 179//85 122//85
f 122//85 179//85 180//85
f 122//86 180//86 123//86
f 123//87 180//87 181//87
f 123//88 181//88 176//88
f 178//89 122//89 182//89
f 182//90 122//90 131//90
f 182//91 131//91 183//91
f 183//92 131//92 132//92
f 183//93 132//93 184//93
f 184//93 132//93 185//93
f 185//94 132//94 130//94
f 185//95 130//95 186//95
f 186//96 130//96 187//96
f 187//97 130//97 129//97
f 187//98 129//98 188//98
f 188//98 129//98 189//98
f 189//99 129//99 124//99
f 189//100 124//100 190//100
f 190//100 124//100 16//100
f 16//101 124//101 89//101
f 16//102 89//102 14//102
f 16//103 15//103 190//103
f 190//103 15//103 63//103
f 190//103 63//103 189//103
f 189//104 63//104 188//104
f 188//104 63//104 56//104
f 188//104 56//104 187//104
f 187//105 56//105 186//105
f 186//106 56//106 55//106
f 186//107 55//107 185//107
f 185//108 55//108 54//108
f 185//109 54//109 184//109
f 184//110 54//110 53//110
f 184//111 53//111 183//111
f 183//112 53//112 82//112
f 183//113 82//113 182//113
f 182//114 82//114 81//114
f 182//115 81//115 178//115
f 178//116 81//116 75//116
f 178//117 75//117 179//117
f 179//118 75//118 74//118
f 179//119 74//119 180//119
f 180//120 74//120 73//120
f 180//121 73//121 181//121
f 181//122 73//122 36//122
f 181//123 36//123 176//123
f 176//124 36//124 35//124
f 176//125 35//125 177//125
f 177//125 35//125 47//125
f 177//125 47//125 174//125
f 174//126 47//126 175//126
f 175//126 47//126 7//126
f 175//126 7//126 6//126
f 22//127 21//127 191//127
f 191//127 21//127 57//127
f 191//128 57//128 192//128
f 192//129 57//129 193//129
f 193//129 57//129 51//129
f 193//129 51//129 194//129
f 194//130 51//130 195//130
f 195//131 51//131 50//131
f 195//132 50//132 196//132
f 196//133 50//133 49//133
f 196//134 49//134 197//134
f 197//135 49//135 48//135
f 197//136 48//136 198//136
f 198//137 48//137 77//137
f 198//138 77//138 199//138
f 199//139 77//139 76//139
f 199//140 76//140 200//140
f 200//141 76//141 67//141
f 200//142 67//142 201//142
f 201//143 67//143 66//143
f 201//144 66//144 202//144
f 202//145 66//145 65//145
f 202//146 65//146 203//146
f 203//147 65//147 30//147
f 203//148 30//148 204//148
f 204//149 30//149 29//149
f 204//150 29//150 205//150
f 205//150 29//150 38//150
f 205//150 38//150 206//150
f 206//151 38//151 207//151
f 207//151 38//151 13//151
f 207//151 13//151 12//151
f 109//152 206//152 106//152
f 106//153 206//153 207//153
f 106//154 207//154 90//154
f 90//155 207//155 12//155
f 90//156 12//156 11//156
f 108//157 204//157 109//157
f 109//158 204//158 205//158
f 109//158 205//158 206//158
f 200//159 201//159 107//159
f 107//159 201//159 202//159
f 107//160 202//160 108//160
f 108//161 202//161 203//161
f 108//162 203//162 204//162
f 200//163 107//163 199//163
f 199//164 107//164 121//164
f 199//165 121//165 198//165
f 198//166 121//166 105//166
f 198//167 105//167 197//167
f 197//167 105//167 196//167
f 196//168 105//168 104//168
f 196//169 104//169 195//169
f 195//170 104//170 194//170
f 194//171 104//171 100//171
f 194//172 100//172 193//172
f 193//172 100//172 192//172
f 192//173 100//173 99//173
f 192//174 99//174 191//174
f 191//174 99//174 22//174
f 22//175 99//175 95//175
f 22//176 95//176 20//176
f 97//177 208//177 101//177
f 101//178 208//178 209//178
f 101//179 209//179 96//179
f 96//180 209//180 18//180
f 96//181 18//181 17//181
f 118//182 210//182 97//182
f 97//183 210//183 211//183
f 97//183 211//183 208//183
f 212//184 213//184 113//184
f 113//184 213//184 214//184
f 113//185 214//185 118//185
f 118//186 214//186 215//186
f 118//187 215//187 210//187
f 212//188 113//188 216//188
f 216//189 113//189 115//189
f 216//190 115//190 217//190
f 217//191 115//191 116//191
f 217//192 116//192 218//192
f 218//192 116//192 219//192
f 219//193 116//193 114//193
f 219//194 114//194 220//194
f 220//195 114//195 221//195
f 221//196 114//196 117//196
f 221//197 117//197 222//197
f 222//197 117//197 223//197
f 223//198 117//198 98//198
f 223//199 98//199 224//199
f 224//199 98//199 28//199
f 28//200 98//200 94//200
f 28//201 94//201 26//201
f 28//202 27//202 224//202
f 224//202 27//202 58//202
f 224//202 58//202 223//202
f 223//203 58//203 222//203
f 222//203 58//203 43//203
f 222//203 43//203 221//203
f 221//204 43//204 220//204
f 220//205 43//205 42//205
f 220//206 42//206 219//206
f 219//207 42//207 41//207
f 219//208 41//208 218//208
f 218//209 41//209 40//209
f 218//210 40//210 217//210
f 217//211 40//211 72//211
f 217//212 72//212 216//212
f 216//213 72//213 71//213
f 216//214 71//214 212//214
f 212//215 71//215 70//215
f 212//216 70//216 213//216
f 213//217 70//217 69//217
f 213//218 69//218 214//218
f 214//219 69//219 68//219
f 214//220 68//220 215//220
f 215//221 68//221 33//221
f 215//222 33//222 210//222
f 210//223 33//223 32//223
f 210//224 32//224 211//224
f 211//224 32//224 39//224
f 211//224 39//224 208//224
f 208//225 39//225 209//225
f 209//226 39//226 19//226
f 209//226 19//226 18//226
