# Blender v2.76 (sub 0) OBJ File: ''
# www.blender.org
mtllib telefax.mtl
o Téléfax
v 365.076447 78.091217 -195.228043
v 370.933289 39.045609 -195.228043
v 370.933289 97.614021 -195.228043
v 343.601349 78.091217 -195.228043
v 344.577484 39.045609 -195.228043
v 344.577484 97.614021 -195.228043
v 322.126251 78.091217 -195.228043
v 323.102417 39.045609 -195.228043
v 323.102417 97.614021 -195.228043
v 300.651184 78.091217 -195.228043
v 301.627350 39.045609 -195.228043
v 301.627350 97.614021 -195.228043
v 279.176117 78.091217 -195.228043
v 280.152252 39.045609 -195.228043
v 280.152252 97.614021 -195.228043
v 257.700989 78.091217 -195.228043
v 258.677155 39.045609 -195.228043
v 258.677155 97.614021 -195.228043
v 236.225922 78.091217 -195.228043
v 237.202072 39.045609 -195.228043
v 237.202072 97.614021 -195.228043
v 214.750839 78.091217 -195.228043
v 215.726990 39.045609 -195.228043
v 215.726990 97.614021 -195.228043
v 150.325592 78.091217 -195.228043
v 151.301727 39.045609 -195.228043
v 151.301727 97.614021 -195.228043
v 128.850494 78.091217 -195.228043
v 129.826630 39.045609 -195.228043
v 129.826630 97.614021 -195.228043
v 107.375420 78.091217 -195.228043
v 108.351562 39.045609 -195.228043
v 108.351562 97.614021 -195.228043
v 85.900337 78.091217 -195.228043
v 86.876480 39.045609 -195.228043
v 86.876480 97.614021 -195.228043
v 64.425247 78.091217 -195.228043
v 65.401390 39.045609 -195.228043
v 65.401390 97.614021 -195.228043
v 42.950176 78.091217 -195.228043
v 43.926315 39.045609 -195.228043
v 43.926315 97.614021 -195.228043
v 19.522808 39.045609 -195.228043
v 19.522808 0.000000 -195.228043
v 21.475088 0.000000 -195.228043
v 21.475088 39.045609 -195.228043
v 19.522808 97.614021 -195.228043
v 21.475088 97.614021 -195.228043
v 23.427366 78.091217 -195.228043
v 23.427366 80.043495 -195.228043
v 42.950176 80.043495 -195.228043
v 44.902451 78.091217 -195.228043
v 44.902451 80.043495 -195.228043
v 64.425247 80.043495 -195.228043
v 66.377525 78.091217 -195.228043
v 66.377525 80.043495 -195.228043
v 85.900337 80.043495 -195.228043
v 87.852615 78.091217 -195.228043
v 87.852615 80.043495 -195.228043
v 107.375420 80.043495 -195.228043
v 109.327705 78.091217 -195.228043
v 109.327705 80.043495 -195.228043
v 128.850494 80.043495 -195.228043
v 130.802780 78.091217 -195.228043
v 130.802780 80.043495 -195.228043
v 150.325592 80.043495 -195.228043
v 171.800674 78.091217 -195.228043
v 152.277878 78.091217 -195.228043
v 152.277878 80.043495 -195.228043
v 171.800674 80.043495 -195.228043
v 173.752960 80.043495 -195.228043
v 193.275757 80.043495 -195.228043
v 194.251907 97.614021 -195.228043
v 193.275757 78.091217 -195.228043
v 194.251907 39.045609 -195.228043
v 173.752960 78.091217 -195.228043
v 195.228043 78.091217 -195.228043
v 195.228043 80.043495 -195.228043
v 214.750839 80.043495 -195.228043
v 216.703125 78.091217 -195.228043
v 216.703125 80.043495 -195.228043
v 236.225922 80.043495 -195.228043
v 238.178207 78.091217 -195.228043
v 238.178207 80.043495 -195.228043
v 257.700989 80.043495 -195.228043
v 259.653290 78.091217 -195.228043
v 259.653290 80.043495 -195.228043
v 279.176117 80.043495 -195.228043
v 281.128387 78.091217 -195.228043
v 281.128387 80.043495 -195.228043
v 300.651184 80.043495 -195.228043
v 302.603455 78.091217 -195.228043
v 302.603455 80.043495 -195.228043
v 322.126251 80.043495 -195.228043
v 324.078583 78.091217 -195.228043
v 324.078583 80.043495 -195.228043
v 343.601349 80.043495 -195.228043
v 345.553619 78.091217 -195.228043
v 345.553619 80.043495 -195.228043
v 365.076447 80.043495 -195.228043
v 43.926315 0.000000 -195.228043
v 65.401390 0.000000 -195.228043
v 86.876480 0.000000 -195.228043
v 108.351562 0.000000 -195.228043
v 129.826630 0.000000 -195.228043
v 151.301727 0.000000 -195.228043
v 194.251907 0.000000 -195.228043
v 215.726990 0.000000 -195.228043
v 237.202072 0.000000 -195.228043
v 258.677155 0.000000 -195.228043
v 280.152252 0.000000 -195.228043
v 301.627350 0.000000 -195.228043
v 323.102417 0.000000 -195.228043
v 344.577484 0.000000 -195.228043
v 370.933289 0.000000 -195.228043
v 19.522808 97.614021 -97.614021
v 0.000000 97.614021 -97.614021
v 0.000000 224.512253 -97.614021
v 390.456085 224.512253 -97.614021
v 390.456085 97.614021 -97.614021
v 370.933289 97.614021 -97.614021
v 370.933289 0.000000 -97.614021
v 19.522808 0.000000 -97.614021
v 0.000000 97.614021 -334.098602
v 0.000000 0.000000 -390.456085
v 0.000000 0.000000 0.000000
v 0.000000 224.512253 0.000000
v 390.456085 0.000000 0.000000
v 390.456085 224.512253 0.000000
v 390.456085 97.614021 -334.098602
v 390.456085 0.000000 -390.456085
v 42.950176 80.043495 -126.898224
v 42.950176 78.091217 -126.898224
v 23.427366 78.091217 -126.898224
v 23.427366 80.043495 -126.898224
v 64.425247 80.043495 -126.898224
v 64.425247 78.091217 -126.898224
v 44.902451 78.091217 -126.898224
v 44.902451 80.043495 -126.898224
v 85.900337 80.043495 -126.898224
v 85.900337 78.091217 -126.898224
v 66.377525 78.091217 -126.898224
v 66.377525 80.043495 -126.898224
v 107.375420 80.043495 -126.898224
v 107.375420 78.091217 -126.898224
v 87.852615 78.091217 -126.898224
v 87.852615 80.043495 -126.898224
v 128.850494 80.043495 -126.898224
v 128.850494 78.091217 -126.898224
v 109.327705 78.091217 -126.898224
v 109.327705 80.043495 -126.898224
v 150.325592 80.043495 -126.898224
v 150.325592 78.091217 -126.898224
v 130.802780 78.091217 -126.898224
v 130.802780 80.043495 -126.898224
v 171.800674 80.043495 -126.898224
v 171.800674 78.091217 -126.898224
v 152.277878 78.091217 -126.898224
v 152.277878 80.043495 -126.898224
v 193.275757 80.043495 -126.898224
v 193.275757 78.091217 -126.898224
v 173.752960 78.091217 -126.898224
v 173.752960 80.043495 -126.898224
v 214.750839 80.043495 -126.898224
v 214.750839 78.091217 -126.898224
v 195.228043 78.091217 -126.898224
v 195.228043 80.043495 -126.898224
v 236.225922 80.043495 -126.898224
v 236.225922 78.091217 -126.898224
v 216.703125 78.091217 -126.898224
v 216.703125 80.043495 -126.898224
v 257.700989 80.043495 -126.898224
v 257.700989 78.091217 -126.898224
v 238.178207 78.091217 -126.898224
v 238.178207 80.043495 -126.898224
v 279.176117 80.043495 -126.898224
v 279.176117 78.091217 -126.898224
v 259.653290 78.091217 -126.898224
v 259.653290 80.043495 -126.898224
v 300.651184 80.043495 -126.898224
v 300.651184 78.091217 -126.898224
v 281.128387 78.091217 -126.898224
v 281.128387 80.043495 -126.898224
v 322.126251 80.043495 -126.898224
v 322.126251 78.091217 -126.898224
v 302.603455 78.091217 -126.898224
v 302.603455 80.043495 -126.898224
v 343.601349 80.043495 -126.898224
v 343.601349 78.091217 -126.898224
v 324.078583 78.091217 -126.898224
v 324.078583 80.043495 -126.898224
v 365.076447 80.043495 -126.898224
v 365.076447 78.091217 -126.898224
v 345.553619 78.091217 -126.898224
v 345.553619 80.043495 -126.898224
vn -0.000000 0.000000 1.000000
vn 0.000000 0.000000 -1.000000
vn -1.000000 0.000000 0.000000
vn 1.000000 0.000000 0.000000
vn 0.000000 1.000000 0.000000
vn 0.000000 0.500000 -0.866000
vn 0.000000 -1.000000 0.000000
usemtl None
s off
f 1//1 2//1 3//1
f 4//1 5//1 6//1
f 7//1 8//1 9//1
f 10//1 11//1 12//1
f 13//1 14//1 15//1
f 16//1 17//1 18//1
f 19//1 20//1 21//1
f 22//1 23//1 24//1
f 25//1 26//1 27//1
f 28//1 29//1 30//1
f 31//1 32//1 33//1
f 34//1 35//1 36//1
f 37//1 38//1 39//1
f 40//1 41//1 42//1
f 43//1 44//1 45//1
f 43//1 46//1 47//1
f 47//1 46//1 48//1
f 41//1 40//1 46//1
f 46//1 40//1 49//1
f 46//1 49//1 48//1
f 48//1 49//1 50//1
f 48//1 50//1 42//1
f 42//1 50//1 51//1
f 42//1 51//1 40//1
f 38//1 37//1 41//1
f 41//1 37//1 52//1
f 41//1 52//1 42//1
f 42//1 52//1 53//1
f 42//1 53//1 39//1
f 39//1 53//1 54//1
f 39//1 54//1 37//1
f 35//1 34//1 38//1
f 38//1 34//1 55//1
f 38//1 55//1 39//1
f 39//1 55//1 56//1
f 39//1 56//1 36//1
f 36//1 56//1 57//1
f 36//1 57//1 34//1
f 32//1 31//1 35//1
f 35//1 31//1 58//1
f 35//1 58//1 36//1
f 36//1 58//1 59//1
f 36//1 59//1 33//1
f 33//1 59//1 60//1
f 33//1 60//1 31//1
f 29//1 28//1 32//1
f 32//1 28//1 61//1
f 32//1 61//1 33//1
f 33//1 61//1 62//1
f 33//1 62//1 30//1
f 30//1 62//1 63//1
f 30//1 63//1 28//1
f 26//1 25//1 29//1
f 29//1 25//1 64//1
f 29//1 64//1 30//1
f 30//1 64//1 65//1
f 30//1 65//1 27//1
f 27//1 65//1 66//1
f 27//1 66//1 25//1
f 67//1 68//1 26//1
f 26//1 68//1 27//1
f 27//1 68//1 69//1
f 27//1 69//1 70//1
f 71//1 72//1 73//1
f 73//1 72//1 74//1
f 73//1 74//1 75//1
f 75//1 74//1 76//1
f 73//1 27//1 71//1
f 71//1 27//1 70//1
f 71//1 70//1 76//1
f 76//1 70//1 67//1
f 76//1 67//1 75//1
f 75//1 67//1 26//1
f 23//1 22//1 75//1
f 75//1 22//1 77//1
f 75//1 77//1 73//1
f 73//1 77//1 78//1
f 73//1 78//1 24//1
f 24//1 78//1 79//1
f 24//1 79//1 22//1
f 20//1 19//1 23//1
f 23//1 19//1 80//1
f 23//1 80//1 24//1
f 24//1 80//1 81//1
f 24//1 81//1 21//1
f 21//1 81//1 82//1
f 21//1 82//1 19//1
f 17//1 16//1 20//1
f 20//1 16//1 83//1
f 20//1 83//1 21//1
f 21//1 83//1 84//1
f 21//1 84//1 18//1
f 18//1 84//1 85//1
f 18//1 85//1 16//1
f 14//1 13//1 17//1
f 17//1 13//1 86//1
f 17//1 86//1 18//1
f 18//1 86//1 87//1
f 18//1 87//1 15//1
f 15//1 87//1 88//1
f 15//1 88//1 13//1
f 11//1 10//1 14//1
f 14//1 10//1 89//1
f 14//1 89//1 15//1
f 15//1 89//1 90//1
f 15//1 90//1 12//1
f 12//1 90//1 91//1
f 12//1 91//1 10//1
f 8//1 7//1 11//1
f 11//1 7//1 92//1
f 11//1 92//1 12//1
f 12//1 92//1 93//1
f 12//1 93//1 9//1
f 9//1 93//1 94//1
f 9//1 94//1 7//1
f 5//1 4//1 8//1
f 8//1 4//1 95//1
f 8//1 95//1 9//1
f 9//1 95//1 96//1
f 9//1 96//1 6//1
f 6//1 96//1 97//1
f 6//1 97//1 4//1
f 2//1 1//1 5//1
f 5//1 1//1 98//1
f 5//1 98//1 6//1
f 6//1 98//1 99//1
f 6//1 99//1 3//1
f 3//1 99//1 100//1
f 3//1 100//1 1//1
f 43//1 45//1 46//1
f 46//1 45//1 101//1
f 46//1 101//1 41//1
f 41//1 101//1 102//1
f 41//1 102//1 38//1
f 38//1 102//1 103//1
f 38//1 103//1 35//1
f 35//1 103//1 104//1
f 35//1 104//1 32//1
f 32//1 104//1 105//1
f 32//1 105//1 29//1
f 29//1 105//1 106//1
f 29//1 106//1 26//1
f 26//1 106//1 107//1
f 26//1 107//1 75//1
f 75//1 107//1 108//1
f 75//1 108//1 23//1
f 23//1 108//1 109//1
f 23//1 109//1 20//1
f 20//1 109//1 110//1
f 20//1 110//1 17//1
f 17//1 110//1 111//1
f 17//1 111//1 14//1
f 14//1 111//1 112//1
f 14//1 112//1 11//1
f 11//1 112//1 113//1
f 11//1 113//1 8//1
f 8//1 113//1 114//1
f 8//1 114//1 5//1
f 5//1 114//1 115//1
f 5//1 115//1 2//1
f 116//2 117//2 118//2
f 119//2 120//2 121//2
f 122//2 123//2 121//2
f 121//2 123//2 116//2
f 121//2 116//2 119//2
f 119//2 116//2 118//2
f 124//3 125//3 117//3
f 117//3 125//3 126//3
f 117//3 126//3 118//3
f 118//3 126//3 127//3
f 128//1 129//1 126//1
f 126//1 129//1 127//1
f 119//4 129//4 120//4
f 120//4 129//4 128//4
f 120//4 128//4 130//4
f 130//4 128//4 131//4
f 129//5 119//5 127//5
f 127//5 119//5 118//5
f 47//4 116//4 43//4
f 43//4 116//4 123//4
f 43//4 123//4 44//4
f 115//3 122//3 2//3
f 2//3 122//3 121//3
f 2//3 121//3 3//3
f 125//6 124//6 131//6
f 131//6 124//6 130//6
f 124//5 117//5 47//5
f 47//5 117//5 116//5
f 47//5 48//5 124//5
f 124//5 48//5 42//5
f 124//5 42//5 39//5
f 39//5 36//5 124//5
f 124//5 36//5 33//5
f 124//5 33//5 30//5
f 30//5 27//5 124//5
f 124//5 27//5 73//5
f 124//5 73//5 130//5
f 73//5 24//5 130//5
f 130//5 24//5 21//5
f 130//5 21//5 18//5
f 18//5 15//5 130//5
f 130//5 15//5 12//5
f 130//5 12//5 9//5
f 121//5 120//5 3//5
f 3//5 120//5 130//5
f 3//5 130//5 6//5
f 6//5 130//5 9//5
f 128//7 115//7 131//7
f 131//7 115//7 114//7
f 131//7 114//7 113//7
f 113//7 112//7 131//7
f 131//7 112//7 111//7
f 131//7 111//7 110//7
f 110//7 109//7 131//7
f 131//7 109//7 108//7
f 131//7 108//7 125//7
f 125//7 108//7 107//7
f 107//7 106//7 125//7
f 125//7 106//7 105//7
f 125//7 105//7 104//7
f 104//7 103//7 125//7
f 125//7 103//7 102//7
f 125//7 102//7 101//7
f 101//7 45//7 125//7
f 125//7 45//7 44//7
f 125//7 44//7 126//7
f 126//7 44//7 123//7
f 126//7 123//7 128//7
f 128//7 123//7 122//7
f 128//7 122//7 115//7
f 51//4 132//4 40//4
f 40//4 132//4 133//4
f 49//3 134//3 50//3
f 50//3 134//3 135//3
f 50//5 135//5 51//5
f 51//5 135//5 132//5
f 133//7 134//7 40//7
f 40//7 134//7 49//7
f 132//1 135//1 133//1
f 133//1 135//1 134//1
f 54//4 136//4 37//4
f 37//4 136//4 137//4
f 52//3 138//3 53//3
f 53//3 138//3 139//3
f 53//5 139//5 54//5
f 54//5 139//5 136//5
f 137//7 138//7 37//7
f 37//7 138//7 52//7
f 136//1 139//1 137//1
f 137//1 139//1 138//1
f 57//4 140//4 34//4
f 34//4 140//4 141//4
f 55//3 142//3 56//3
f 56//3 142//3 143//3
f 56//5 143//5 57//5
f 57//5 143//5 140//5
f 141//7 142//7 34//7
f 34//7 142//7 55//7
f 140//1 143//1 141//1
f 141//1 143//1 142//1
f 60//4 144//4 31//4
f 31//4 144//4 145//4
f 58//3 146//3 59//3
f 59//3 146//3 147//3
f 59//5 147//5 60//5
f 60//5 147//5 144//5
f 145//7 146//7 31//7
f 31//7 146//7 58//7
f 144//1 147//1 145//1
f 145//1 147//1 146//1
f 63//4 148//4 28//4
f 28//4 148//4 149//4
f 61//3 150//3 62//3
f 62//3 150//3 151//3
f 62//5 151//5 63//5
f 63//5 151//5 148//5
f 149//7 150//7 28//7
f 28//7 150//7 61//7
f 148//1 151//1 149//1
f 149//1 151//1 150//1
f 66//4 152//4 25//4
f 25//4 152//4 153//4
f 64//3 154//3 65//3
f 65//3 154//3 155//3
f 65//5 155//5 66//5
f 66//5 155//5 152//5
f 153//7 154//7 25//7
f 25//7 154//7 64//7
f 152//1 155//1 153//1
f 153//1 155//1 154//1
f 70//4 156//4 67//4
f 67//4 156//4 157//4
f 68//3 158//3 69//3
f 69//3 158//3 159//3
f 69//5 159//5 70//5
f 70//5 159//5 156//5
f 157//7 158//7 67//7
f 67//7 158//7 68//7
f 156//1 159//1 157//1
f 157//1 159//1 158//1
f 72//4 160//4 74//4
f 74//4 160//4 161//4
f 76//3 162//3 71//3
f 71//3 162//3 163//3
f 71//5 163//5 72//5
f 72//5 163//5 160//5
f 161//7 162//7 74//7
f 74//7 162//7 76//7
f 160//1 163//1 161//1
f 161//1 163//1 162//1
f 79//4 164//4 22//4
f 22//4 164//4 165//4
f 77//3 166//3 78//3
f 78//3 166//3 167//3
f 78//5 167//5 79//5
f 79//5 167//5 164//5
f 165//7 166//7 22//7
f 22//7 166//7 77//7
f 164//1 167//1 165//1
f 165//1 167//1 166//1
f 82//4 168//4 19//4
f 19//4 168//4 169//4
f 80//3 170//3 81//3
f 81//3 170//3 171//3
f 81//5 171//5 82//5
f 82//5 171//5 168//5
f 169//7 170//7 19//7
f 19//7 170//7 80//7
f 168//1 171//1 169//1
f 169//1 171//1 170//1
f 85//4 172//4 16//4
f 16//4 172//4 173//4
f 83//3 174//3 84//3
f 84//3 174//3 175//3
f 84//5 175//5 85//5
f 85//5 175//5 172//5
f 173//7 174//7 16//7
f 16//7 174//7 83//7
f 172//1 175//1 173//1
f 173//1 175//1 174//1
f 88//4 176//4 13//4
f 13//4 176//4 177//4
f 86//3 178//3 87//3
f 87//3 178//3 179//3
f 87//5 179//5 88//5
f 88//5 179//5 176//5
f 177//7 178//7 13//7
f 13//7 178//7 86//7
f 176//1 179//1 177//1
f 177//1 179//1 178//1
f 91//4 180//4 10//4
f 10//4 180//4 181//4
f 89//3 182//3 90//3
f 90//3 182//3 183//3
f 90//5 183//5 91//5
f 91//5 183//5 180//5
f 181//7 182//7 10//7
f 10//7 182//7 89//7
f 180//1 183//1 181//1
f 181//1 183//1 182//1
f 94//4 184//4 7//4
f 7//4 184//4 185//4
f 92//3 186//3 93//3
f 93//3 186//3 187//3
f 93//5 187//5 94//5
f 94//5 187//5 184//5
f 185//7 186//7 7//7
f 7//7 186//7 92//7
f 184//1 187//1 185//1
f 185//1 187//1 186//1
f 97//4 188//4 4//4
f 4//4 188//4 189//4
f 95//3 190//3 96//3
f 96//3 190//3 191//3
f 96//5 191//5 97//5
f 97//5 191//5 188//5
f 189//7 190//7 4//7
f 4//7 190//7 95//7
f 188//1 191//1 189//1
f 189//1 191//1 190//1
f 100//4 192//4 1//4
f 1//4 192//4 193//4
f 98//3 194//3 99//3
f 99//3 194//3 195//3
f 99//5 195//5 100//5
f 100//5 195//5 192//5
f 193//7 194//7 1//7
f 1//7 194//7 98//7
f 192//1 195//1 193//1
f 193//1 195//1 194//1
