# Blender v2.76 (sub 0) OBJ File: ''
# www.blender.org
mtllib tuyau.mtl
o Tuyau_Tuyau.001
v 7.071266 0.671209 -0.562221
v 7.071266 0.732942 -0.596707
v 7.071266 0.690970 -0.518505
v 7.071266 0.757643 -0.542062
v 7.071266 0.703058 -0.472078
v 7.071266 0.772754 -0.484028
v 7.071266 0.707127 -0.424276
v 7.071266 0.777839 -0.424276
v 7.071266 0.703058 -0.376474
v 7.071266 0.772754 -0.364523
v 7.071266 0.690970 -0.330047
v 7.071266 0.757643 -0.306490
v 7.071266 0.671209 -0.286331
v 7.071266 0.732942 -0.251845
v 7.071266 0.644344 -0.246584
v 7.071266 0.699361 -0.202160
v 7.071266 0.611148 -0.211948
v 7.071266 0.657866 -0.158866
v 7.071266 0.572577 -0.183420
v 7.071266 0.609652 -0.123207
v 7.071266 0.529739 -0.161822
v 7.071266 0.556104 -0.096208
v 7.071266 0.483867 -0.147774
v 7.071266 0.498764 -0.078648
v 7.071266 0.436281 -0.141680
v 7.071266 0.439282 -0.071031
v 7.071266 0.388349 -0.143716
v 7.071266 0.379367 -0.073576
v 7.071266 0.341451 -0.153824
v 7.071266 0.320745 -0.086211
v 7.071266 0.296936 -0.171711
v 7.071266 0.265100 -0.108570
v 7.071266 0.256084 -0.196865
v 7.071266 0.214036 -0.140012
v 7.071266 0.220070 -0.228561
v 7.071266 0.169019 -0.179632
v 7.071266 0.189931 -0.265887
v 7.071266 0.131345 -0.226289
v 7.071266 0.166534 -0.307769
v 7.071266 0.102099 -0.278643
v 7.071266 0.150552 -0.353004
v 7.071266 0.082121 -0.335186
v 7.071266 0.142444 -0.400289
v 7.071266 0.071986 -0.394292
v 7.071266 0.142444 -0.448263
v 7.071266 0.071986 -0.454260
v 7.071266 0.150552 -0.495548
v 7.071266 0.082121 -0.513366
v 7.071266 0.166534 -0.540783
v 7.071266 0.102099 -0.569909
v 7.071266 0.189931 -0.582665
v 7.071266 0.131345 -0.622263
v 7.071266 0.220070 -0.619991
v 7.071266 0.169019 -0.668920
v 7.071266 0.256084 -0.651687
v 7.071266 0.214036 -0.708540
v 7.071266 0.296936 -0.676841
v 7.071266 0.265100 -0.739982
v 7.071266 0.341451 -0.694728
v 7.071266 0.320745 -0.762341
v 7.071266 0.388349 -0.704836
v 7.071266 0.379367 -0.774976
v 7.071266 0.436281 -0.706872
v 7.071266 0.439282 -0.777521
v 7.071266 0.483867 -0.700778
v 7.071266 0.498764 -0.769904
v 7.071266 0.529739 -0.686730
v 7.071266 0.556104 -0.752344
v 7.071266 0.572577 -0.665132
v 7.071266 0.609652 -0.725345
v 7.071266 0.611148 -0.636604
v 7.071266 0.657866 -0.689686
v 7.071266 0.644344 -0.601968
v 7.071266 0.699361 -0.646392
v 0.000000 0.707127 -0.424276
v 0.000000 0.703058 -0.472078
v 0.000000 0.690970 -0.518505
v 0.000000 0.671209 -0.562221
v 0.000000 0.644344 -0.601968
v 0.000000 0.611148 -0.636604
v 0.000000 0.572577 -0.665132
v 0.000000 0.529739 -0.686730
v 0.000000 0.483867 -0.700778
v 0.000000 0.436281 -0.706872
v 0.000000 0.388349 -0.704836
v 0.000000 0.341451 -0.694728
v 0.000000 0.296936 -0.676841
v 0.000000 0.256084 -0.651687
v 0.000000 0.220070 -0.619991
v 0.000000 0.189931 -0.582665
v 0.000000 0.166534 -0.540783
v 0.000000 0.150552 -0.495548
v 0.000000 0.142444 -0.448263
v 0.000000 0.142444 -0.400289
v 0.000000 0.150552 -0.353004
v 0.000000 0.166534 -0.307769
v 0.000000 0.189931 -0.265887
v 0.000000 0.220070 -0.228561
v 0.000000 0.256084 -0.196865
v 0.000000 0.296936 -0.171711
v 0.000000 0.341451 -0.153824
v 0.000000 0.388349 -0.143716
v 0.000000 0.436281 -0.141680
v 0.000000 0.483867 -0.147774
v 0.000000 0.529739 -0.161822
v 0.000000 0.572577 -0.183420
v 0.000000 0.611148 -0.211948
v 0.000000 0.644344 -0.246584
v 0.000000 0.671209 -0.286331
v 0.000000 0.690970 -0.330047
v 0.000000 0.703058 -0.376474
v 0.000000 0.842449 -0.495979
v 0.000000 0.824316 -0.565619
v 0.000000 0.794675 -0.631193
v 0.000000 0.754378 -0.690815
v 0.000000 0.704584 -0.742768
v 0.000000 0.646727 -0.785559
v 0.000000 0.582470 -0.817957
v 0.000000 0.513662 -0.839029
v 0.000000 0.442283 -0.848170
v 0.000000 0.370385 -0.845116
v 0.000000 0.300038 -0.829955
v 0.000000 0.233265 -0.803123
v 0.000000 0.171987 -0.765393
v 0.000000 0.117967 -0.717849
v 0.000000 0.072759 -0.661860
v 0.000000 0.037664 -0.599036
v 0.000000 0.013690 -0.531184
v 0.000000 0.001528 -0.460257
v 0.000000 0.001528 -0.388295
v 0.000000 0.013690 -0.317368
v 0.000000 0.037664 -0.249516
v 0.000000 0.072759 -0.186692
v 0.000000 0.117967 -0.130703
v 0.000000 0.171987 -0.083159
v 0.000000 0.233265 -0.045429
v 0.000000 0.300038 -0.018597
v 0.000000 0.370385 -0.003436
v 0.000000 0.442283 -0.000382
v 0.000000 0.513662 -0.009523
v 0.000000 0.582470 -0.030595
v 0.000000 0.646727 -0.062993
v 0.000000 0.704584 -0.105784
v 0.000000 0.754378 -0.157737
v 0.000000 0.794675 -0.217359
v 0.000000 0.824316 -0.282933
v 0.000000 0.842449 -0.352573
v 0.000000 0.848552 -0.424276
v 0.141425 0.842449 -0.495979
v 0.141425 0.824316 -0.565619
v 0.141425 0.794675 -0.631193
v 0.141425 0.754378 -0.690815
v 0.141425 0.704584 -0.742768
v 0.141425 0.646727 -0.785559
v 0.141425 0.582470 -0.817957
v 0.141425 0.513662 -0.839029
v 0.141425 0.442283 -0.848170
v 0.141425 0.370385 -0.845116
v 0.141425 0.300038 -0.829955
v 0.141425 0.233265 -0.803123
v 0.141425 0.171987 -0.765393
v 0.141425 0.117967 -0.717849
v 0.141425 0.072759 -0.661860
v 0.141425 0.037664 -0.599036
v 0.141425 0.013690 -0.531184
v 0.141425 0.001528 -0.460257
v 0.141425 0.001528 -0.388295
v 0.141425 0.013690 -0.317368
v 0.141425 0.037664 -0.249516
v 0.141425 0.072759 -0.186692
v 0.141425 0.117967 -0.130703
v 0.141425 0.171987 -0.083159
v 0.141425 0.233265 -0.045429
v 0.141425 0.300038 -0.018597
v 0.141425 0.370385 -0.003436
v 0.141425 0.442283 -0.000382
v 0.141425 0.513662 -0.009523
v 0.141425 0.582470 -0.030595
v 0.141425 0.646727 -0.062993
v 0.141425 0.704584 -0.105784
v 0.141425 0.754378 -0.157737
v 0.141425 0.794675 -0.217359
v 0.141425 0.824316 -0.282933
v 0.141425 0.842449 -0.352573
v 0.141425 0.848552 -0.424276
v 0.141425 0.082121 -0.513366
v 0.141425 0.102099 -0.569909
v 0.141425 0.131345 -0.622263
v 0.141425 0.169019 -0.668920
v 0.141425 0.214036 -0.708540
v 0.141425 0.265100 -0.739982
v 0.141425 0.320745 -0.762341
v 0.141425 0.379367 -0.774976
v 0.141425 0.439282 -0.777521
v 0.141425 0.498764 -0.769904
v 0.141425 0.556104 -0.752344
v 0.141425 0.609652 -0.725345
v 0.141425 0.657866 -0.689686
v 0.141425 0.699361 -0.646392
v 0.141425 0.732942 -0.596707
v 0.141425 0.757643 -0.542062
v 0.141425 0.772754 -0.484028
v 0.141425 0.777839 -0.424276
v 0.141425 0.772754 -0.364523
v 0.141425 0.757643 -0.306490
v 0.141425 0.732942 -0.251845
v 0.141425 0.699361 -0.202160
v 0.141425 0.657866 -0.158866
v 0.141425 0.609652 -0.123207
v 0.141425 0.556104 -0.096208
v 0.141425 0.498764 -0.078648
v 0.141425 0.439282 -0.071031
v 0.141425 0.379367 -0.073576
v 0.141425 0.320745 -0.086211
v 0.141425 0.265100 -0.108570
v 0.141425 0.214036 -0.140012
v 0.141425 0.169019 -0.179632
v 0.141425 0.131345 -0.226289
v 0.141425 0.102099 -0.278643
v 0.141425 0.082121 -0.335186
v 0.141425 0.071986 -0.394292
v 0.141425 0.071986 -0.454260
vn 1.000000 0.000000 0.000000
vn 0.000000 -0.996400 0.084800
vn 0.000000 -0.967700 0.252000
vn 0.000000 -0.911200 0.411900
vn 0.000000 -0.828500 0.560000
vn 0.000000 -0.722000 0.691900
vn 0.000000 -0.594600 0.804000
vn 0.000000 -0.450200 0.892900
vn 0.000000 -0.292800 0.956200
vn 0.000000 -0.127000 0.991900
vn 0.000000 0.042400 0.999100
vn 0.000000 0.210700 0.977600
vn 0.000000 0.372900 0.927900
vn 0.000000 0.524300 0.851500
vn 0.000000 0.660700 0.750700
vn 0.000000 0.778000 0.628200
vn 0.000000 0.873000 0.487700
vn 0.000000 0.942900 0.333100
vn 0.000000 0.985600 0.169000
vn 0.000000 1.000000 0.000000
vn 0.000000 0.985600 -0.169000
vn 0.000000 0.942900 -0.333100
vn 0.000000 0.873000 -0.487700
vn 0.000000 0.778000 -0.628200
vn 0.000000 0.660700 -0.750700
vn 0.000000 0.524300 -0.851500
vn 0.000000 0.372900 -0.927900
vn 0.000000 0.210700 -0.977600
vn 0.000000 0.042400 -0.999100
vn 0.000000 -0.127000 -0.991900
vn 0.000000 -0.292800 -0.956200
vn 0.000000 -0.450200 -0.892900
vn 0.000000 -0.594600 -0.804000
vn 0.000000 -0.722000 -0.691900
vn 0.000000 -0.828500 -0.560000
vn 0.000000 -0.911200 -0.411900
vn 0.000000 -0.967700 -0.252000
vn 0.000000 -0.996400 -0.084800
vn -1.000000 0.000000 0.000000
vn 0.000000 0.996400 -0.084800
vn 0.000000 0.967700 -0.252000
vn 0.000000 0.911200 -0.411900
vn 0.000000 0.828500 -0.560000
vn 0.000000 0.722000 -0.691900
vn 0.000000 0.594600 -0.804000
vn 0.000000 0.450200 -0.892900
vn 0.000000 0.292800 -0.956200
vn 0.000000 0.127000 -0.991900
vn 0.000000 -0.042400 -0.999100
vn 0.000000 -0.210700 -0.977600
vn 0.000000 -0.372900 -0.927900
vn 0.000000 -0.524300 -0.851500
vn 0.000000 -0.660700 -0.750700
vn 0.000000 -0.778000 -0.628200
vn 0.000000 -0.873000 -0.487700
vn 0.000000 -0.942900 -0.333100
vn 0.000000 -0.985600 -0.169000
vn 0.000000 -1.000000 0.000000
vn 0.000000 -0.985600 0.169000
vn 0.000000 -0.942900 0.333100
vn 0.000000 -0.873000 0.487700
vn 0.000000 -0.778000 0.628200
vn 0.000000 -0.660700 0.750700
vn 0.000000 -0.524300 0.851500
vn 0.000000 -0.372900 0.927900
vn 0.000000 -0.210700 0.977600
vn 0.000000 -0.042400 0.999100
vn 0.000000 0.127000 0.991900
vn 0.000000 0.292800 0.956200
vn 0.000000 0.450200 0.892900
vn 0.000000 0.594600 0.804000
vn 0.000000 0.722000 0.691900
vn 0.000000 0.828500 0.560000
vn 0.000000 0.911200 0.411900
vn 0.000000 0.967700 0.252000
vn 0.000000 0.996400 0.084800
usemtl None
s off
f 1//1 2//1 3//1
f 3//1 2//1 4//1
f 3//1 4//1 5//1
f 5//1 4//1 6//1
f 5//1 6//1 7//1
f 7//1 6//1 8//1
f 7//1 8//1 9//1
f 9//1 8//1 10//1
f 9//1 10//1 11//1
f 11//1 10//1 12//1
f 11//1 12//1 13//1
f 13//1 12//1 14//1
f 13//1 14//1 15//1
f 15//1 14//1 16//1
f 15//1 16//1 17//1
f 17//1 16//1 18//1
f 17//1 18//1 19//1
f 19//1 18//1 20//1
f 19//1 20//1 21//1
f 21//1 20//1 22//1
f 21//1 22//1 23//1
f 23//1 22//1 24//1
f 23//1 24//1 25//1
f 25//1 24//1 26//1
f 25//1 26//1 27//1
f 27//1 26//1 28//1
f 27//1 28//1 29//1
f 29//1 28//1 30//1
f 29//1 30//1 31//1
f 31//1 30//1 32//1
f 31//1 32//1 33//1
f 33//1 32//1 34//1
f 33//1 34//1 35//1
f 35//1 34//1 36//1
f 35//1 36//1 37//1
f 37//1 36//1 38//1
f 37//1 38//1 39//1
f 39//1 38//1 40//1
f 39//1 40//1 41//1
f 41//1 40//1 42//1
f 41//1 42//1 43//1
f 43//1 42//1 44//1
f 43//1 44//1 45//1
f 45//1 44//1 46//1
f 45//1 46//1 47//1
f 47//1 46//1 48//1
f 47//1 48//1 49//1
f 49//1 48//1 50//1
f 49//1 50//1 51//1
f 51//1 50//1 52//1
f 51//1 52//1 53//1
f 53//1 52//1 54//1
f 53//1 54//1 55//1
f 55//1 54//1 56//1
f 55//1 56//1 57//1
f 57//1 56//1 58//1
f 57//1 58//1 59//1
f 59//1 58//1 60//1
f 59//1 60//1 61//1
f 61//1 60//1 62//1
f 61//1 62//1 63//1
f 63//1 62//1 64//1
f 63//1 64//1 65//1
f 65//1 64//1 66//1
f 65//1 66//1 67//1
f 67//1 66//1 68//1
f 67//1 68//1 69//1
f 69//1 68//1 70//1
f 69//1 70//1 71//1
f 71//1 70//1 72//1
f 71//1 72//1 73//1
f 73//1 72//1 74//1
f 73//1 74//1 1//1
f 1//1 74//1 2//1
f 7//2 75//2 5//2
f 5//2 75//2 76//2
f 5//3 76//3 3//3
f 3//3 76//3 77//3
f 3//4 77//4 1//4
f 1//4 77//4 78//4
f 1//5 78//5 73//5
f 73//5 78//5 79//5
f 73//6 79//6 71//6
f 71//6 79//6 80//6
f 71//7 80//7 69//7
f 69//7 80//7 81//7
f 69//8 81//8 67//8
f 67//8 81//8 82//8
f 67//9 82//9 65//9
f 65//9 82//9 83//9
f 65//10 83//10 63//10
f 63//10 83//10 84//10
f 63//11 84//11 61//11
f 61//11 84//11 85//11
f 61//12 85//12 59//12
f 59//12 85//12 86//12
f 59//13 86//13 57//13
f 57//13 86//13 87//13
f 57//14 87//14 55//14
f 55//14 87//14 88//14
f 55//15 88//15 53//15
f 53//15 88//15 89//15
f 53//16 89//16 51//16
f 51//16 89//16 90//16
f 51//17 90//17 49//17
f 49//17 90//17 91//17
f 49//18 91//18 47//18
f 47//18 91//18 92//18
f 47//19 92//19 45//19
f 45//19 92//19 93//19
f 45//20 93//20 43//20
f 43//20 93//20 94//20
f 43//21 94//21 41//21
f 41//21 94//21 95//21
f 41//22 95//22 39//22
f 39//22 95//22 96//22
f 39//23 96//23 37//23
f 37//23 96//23 97//23
f 37//24 97//24 35//24
f 35//24 97//24 98//24
f 35//25 98//25 33//25
f 33//25 98//25 99//25
f 33//26 99//26 31//26
f 31//26 99//26 100//26
f 31//27 100//27 29//27
f 29//27 100//27 101//27
f 29//28 101//28 27//28
f 27//28 101//28 102//28
f 27//29 102//29 25//29
f 25//29 102//29 103//29
f 25//30 103//30 23//30
f 23//30 103//30 104//30
f 23//31 104//31 21//31
f 21//31 104//31 105//31
f 21//32 105//32 19//32
f 19//32 105//32 106//32
f 19//33 106//33 17//33
f 17//33 106//33 107//33
f 17//34 107//34 15//34
f 15//34 107//34 108//34
f 15//35 108//35 13//35
f 13//35 108//35 109//35
f 13//36 109//36 11//36
f 11//36 109//36 110//36
f 11//37 110//37 9//37
f 9//37 110//37 111//37
f 9//38 111//38 7//38
f 7//38 111//38 75//38
f 76//39 112//39 77//39
f 77//39 112//39 113//39
f 77//39 113//39 78//39
f 78//39 113//39 114//39
f 78//39 114//39 79//39
f 79//39 114//39 115//39
f 79//39 115//39 80//39
f 80//39 115//39 116//39
f 80//39 116//39 81//39
f 81//39 116//39 117//39
f 81//39 117//39 82//39
f 82//39 117//39 118//39
f 82//39 118//39 83//39
f 83//39 118//39 119//39
f 83//39 119//39 84//39
f 84//39 119//39 120//39
f 84//39 120//39 85//39
f 85//39 120//39 121//39
f 85//39 121//39 86//39
f 86//39 121//39 122//39
f 86//39 122//39 87//39
f 87//39 122//39 123//39
f 87//39 123//39 88//39
f 88//39 123//39 124//39
f 88//39 124//39 89//39
f 89//39 124//39 125//39
f 89//39 125//39 90//39
f 90//39 125//39 126//39
f 90//39 126//39 91//39
f 91//39 126//39 127//39
f 91//39 127//39 92//39
f 92//39 127//39 128//39
f 92//39 128//39 93//39
f 93//39 128//39 129//39
f 93//39 129//39 94//39
f 94//39 129//39 130//39
f 94//39 130//39 95//39
f 95//39 130//39 131//39
f 95//39 131//39 96//39
f 96//39 131//39 132//39
f 96//39 132//39 97//39
f 97//39 132//39 133//39
f 97//39 133//39 98//39
f 98//39 133//39 134//39
f 98//39 134//39 99//39
f 99//39 134//39 135//39
f 99//39 135//39 100//39
f 100//39 135//39 136//39
f 100//39 136//39 101//39
f 101//39 136//39 137//39
f 101//39 137//39 102//39
f 102//39 137//39 138//39
f 102//39 138//39 103//39
f 103//39 138//39 139//39
f 103//39 139//39 104//39
f 104//39 139//39 140//39
f 104//39 140//39 105//39
f 105//39 140//39 141//39
f 105//39 141//39 106//39
f 106//39 141//39 142//39
f 106//39 142//39 107//39
f 107//39 142//39 143//39
f 107//39 143//39 108//39
f 108//39 143//39 144//39
f 108//39 144//39 109//39
f 109//39 144//39 145//39
f 109//39 145//39 110//39
f 110//39 145//39 146//39
f 110//39 146//39 111//39
f 111//39 146//39 147//39
f 111//39 147//39 75//39
f 75//39 147//39 148//39
f 75//39 148//39 76//39
f 76//39 148//39 112//39
f 148//40 149//40 112//40
f 112//41 149//41 150//41
f 112//41 150//41 113//41
f 113//42 150//42 151//42
f 113//42 151//42 114//42
f 114//43 151//43 152//43
f 114//43 152//43 115//43
f 115//44 152//44 153//44
f 115//44 153//44 116//44
f 116//45 153//45 154//45
f 116//45 154//45 117//45
f 117//46 154//46 155//46
f 117//46 155//46 118//46
f 118//47 155//47 156//47
f 118//47 156//47 119//47
f 119//48 156//48 157//48
f 119//48 157//48 120//48
f 120//49 157//49 158//49
f 120//49 158//49 121//49
f 121//50 158//50 159//50
f 121//50 159//50 122//50
f 122//51 159//51 160//51
f 122//51 160//51 123//51
f 123//52 160//52 161//52
f 123//52 161//52 124//52
f 124//53 161//53 162//53
f 124//53 162//53 125//53
f 125//54 162//54 163//54
f 125//54 163//54 126//54
f 126//55 163//55 164//55
f 126//55 164//55 127//55
f 127//56 164//56 165//56
f 127//56 165//56 128//56
f 128//57 165//57 166//57
f 128//57 166//57 129//57
f 129//58 166//58 167//58
f 129//58 167//58 130//58
f 130//59 167//59 168//59
f 130//59 168//59 131//59
f 131//60 168//60 169//60
f 131//60 169//60 132//60
f 132//61 169//61 170//61
f 132//61 170//61 133//61
f 133//62 170//62 171//62
f 133//62 171//62 134//62
f 134//63 171//63 172//63
f 134//63 172//63 135//63
f 135//64 172//64 173//64
f 135//64 173//64 136//64
f 136//65 173//65 174//65
f 136//65 174//65 137//65
f 137//66 174//66 175//66
f 137//66 175//66 138//66
f 138//67 175//67 176//67
f 138//67 176//67 139//67
f 139//68 176//68 177//68
f 139//68 177//68 140//68
f 140//69 177//69 178//69
f 140//69 178//69 141//69
f 141//70 178//70 179//70
f 141//70 179//70 142//70
f 142//71 179//71 180//71
f 142//71 180//71 143//71
f 143//72 180//72 181//72
f 143//72 181//72 144//72
f 144//73 181//73 182//73
f 144//73 182//73 145//73
f 145//74 182//74 183//74
f 145//74 183//74 146//74
f 146//75 183//75 184//75
f 146//75 184//75 147//75
f 147//76 184//76 185//76
f 147//76 185//76 148//76
f 148//40 185//40 149//40
f 186//1 165//1 187//1
f 187//1 165//1 164//1
f 187//1 164//1 188//1
f 188//1 164//1 163//1
f 188//1 163//1 189//1
f 189//1 163//1 162//1
f 189//1 162//1 190//1
f 190//1 162//1 161//1
f 190//1 161//1 191//1
f 191//1 161//1 160//1
f 191//1 160//1 192//1
f 192//1 160//1 159//1
f 192//1 159//1 193//1
f 193//1 159//1 158//1
f 193//1 158//1 194//1
f 194//1 158//1 157//1
f 194//1 157//1 195//1
f 195//1 157//1 156//1
f 195//1 156//1 196//1
f 196//1 156//1 155//1
f 196//1 155//1 197//1
f 197//1 155//1 154//1
f 197//1 154//1 198//1
f 198//1 154//1 153//1
f 198//1 153//1 199//1
f 199//1 153//1 152//1
f 199//1 152//1 200//1
f 200//1 152//1 151//1
f 200//1 151//1 201//1
f 201//1 151//1 150//1
f 201//1 150//1 202//1
f 202//1 150//1 149//1
f 202//1 149//1 203//1
f 203//1 149//1 185//1
f 203//1 185//1 204//1
f 204//1 185//1 184//1
f 204//1 184//1 205//1
f 205//1 184//1 183//1
f 205//1 183//1 206//1
f 206//1 183//1 182//1
f 206//1 182//1 207//1
f 207//1 182//1 181//1
f 207//1 181//1 208//1
f 208//1 181//1 180//1
f 208//1 180//1 209//1
f 209//1 180//1 179//1
f 209//1 179//1 210//1
f 210//1 179//1 178//1
f 210//1 178//1 211//1
f 211//1 178//1 177//1
f 211//1 177//1 212//1
f 212//1 177//1 176//1
f 212//1 176//1 213//1
f 213//1 176//1 175//1
f 213//1 175//1 214//1
f 214//1 175//1 174//1
f 214//1 174//1 215//1
f 215//1 174//1 173//1
f 215//1 173//1 216//1
f 216//1 173//1 172//1
f 216//1 172//1 217//1
f 217//1 172//1 171//1
f 217//1 171//1 218//1
f 218//1 171//1 170//1
f 218//1 170//1 219//1
f 219//1 170//1 169//1
f 219//1 169//1 220//1
f 220//1 169//1 168//1
f 220//1 168//1 221//1
f 221//1 168//1 167//1
f 221//1 167//1 222//1
f 222//1 167//1 166//1
f 222//1 166//1 186//1
f 186//1 166//1 165//1
f 203//40 6//40 202//40
f 202//41 6//41 4//41
f 202//41 4//41 201//41
f 201//42 4//42 2//42
f 201//42 2//42 200//42
f 200//43 2//43 74//43
f 200//43 74//43 199//43
f 199//44 74//44 72//44
f 199//44 72//44 198//44
f 198//45 72//45 70//45
f 198//45 70//45 197//45
f 197//46 70//46 68//46
f 197//46 68//46 196//46
f 196//47 68//47 66//47
f 196//47 66//47 195//47
f 195//48 66//48 64//48
f 195//48 64//48 194//48
f 194//49 64//49 62//49
f 194//49 62//49 193//49
f 193//50 62//50 60//50
f 193//50 60//50 192//50
f 192//51 60//51 58//51
f 192//51 58//51 191//51
f 191//52 58//52 56//52
f 191//52 56//52 190//52
f 190//53 56//53 54//53
f 190//53 54//53 189//53
f 189//54 54//54 52//54
f 189//54 52//54 188//54
f 188//55 52//55 50//55
f 188//55 50//55 187//55
f 187//56 50//56 48//56
f 187//56 48//56 186//56
f 186//57 48//57 46//57
f 186//57 46//57 222//57
f 222//58 46//58 44//58
f 222//58 44//58 221//58
f 221//59 44//59 42//59
f 221//59 42//59 220//59
f 220//60 42//60 40//60
f 220//60 40//60 219//60
f 219//61 40//61 38//61
f 219//61 38//61 218//61
f 218//62 38//62 36//62
f 218//62 36//62 217//62
f 217//63 36//63 34//63
f 217//63 34//63 216//63
f 216//64 34//64 32//64
f 216//64 32//64 215//64
f 215//65 32//65 30//65
f 215//65 30//65 214//65
f 214//66 30//66 28//66
f 214//66 28//66 213//66
f 213//67 28//67 26//67
f 213//67 26//67 212//67
f 212//68 26//68 24//68
f 212//68 24//68 211//68
f 211//69 24//69 22//69
f 211//69 22//69 210//69
f 210//70 22//70 20//70
f 210//70 20//70 209//70
f 209//71 20//71 18//71
f 209//71 18//71 208//71
f 208//72 18//72 16//72
f 208//72 16//72 207//72
f 207//73 16//73 14//73
f 207//73 14//73 206//73
f 206//74 14//74 12//74
f 206//74 12//74 205//74
f 205//75 12//75 10//75
f 205//75 10//75 204//75
f 204//76 10//76 8//76
f 204//76 8//76 203//76
f 203//40 8//40 6//40
