<svg id="svg" xmlns="http://www.w3.org/2000/svg" xmlns:xlink="http://www.w3.org/1999/xlink" width="400" height="155.9748427672956" viewBox="0, 0, 400,155.9748427672956"><g id="svgg"><path id="path0" d="M42.427 31.604 C 42.262 32.036,42.200 49.371,42.290 70.126 L 42.453 107.862 46.686 108.047 C 53.791 108.359,53.368 109.394,53.586 91.166 C 53.743 78.000,53.928 75.327,54.717 74.829 C 56.559 73.666,91.541 74.058,92.533 75.253 C 93.198 76.053,93.444 79.768,93.605 91.445 C 93.847 108.987,93.552 108.176,99.695 108.176 C 105.576 108.176,105.031 112.120,105.031 69.497 C 105.031 26.874,105.576 30.818,99.695 30.818 C 93.549 30.818,93.831 30.069,93.597 47.003 C 93.418 60.009,93.274 61.714,92.273 62.715 C 90.808 64.177,56.032 64.459,54.591 63.020 C 53.977 62.407,53.729 58.491,53.595 47.297 C 53.387 29.995,53.715 30.818,47.030 30.818 C 44.168 30.818,42.627 31.081,42.427 31.604 M210.897 47.784 C 200.091 48.471,197.602 48.919,196.857 50.311 C 195.882 52.132,196.002 132.858,196.981 133.836 C 197.979 134.835,205.125 134.811,206.476 133.805 C 207.391 133.124,207.554 131.384,207.697 120.755 L 207.862 108.491 219.497 108.416 C 242.980 108.265,249.994 102.531,251.462 82.282 C 253.639 52.249,245.780 45.565,210.897 47.784 M289.623 47.832 C 273.664 49.390,266.616 59.012,266.689 79.143 C 266.768 101.233,273.242 108.062,294.654 108.644 C 310.075 109.062,314.944 107.739,317.677 102.384 C 319.835 98.154,319.420 97.238,315.566 97.732 C 288.407 101.211,278.937 98.220,278.932 86.164 L 278.931 82.075 299.552 81.761 C 323.728 81.392,321.609 82.258,321.113 72.956 C 320.353 58.721,317.384 52.361,310.254 49.693 C 307.425 48.635,297.343 46.997,295.283 47.261 C 294.937 47.305,292.390 47.562,289.623 47.832 M345.290 48.560 C 337.639 49.409,338.328 46.294,338.516 79.170 L 338.679 107.862 344.025 107.862 L 349.371 107.862 349.686 83.666 L 350.000 59.470 351.572 58.675 C 352.680 58.115,356.819 57.877,365.566 57.871 L 377.987 57.862 377.987 56.423 C 377.987 53.571,375.313 49.424,372.956 48.620 C 370.328 47.724,353.159 47.686,345.290 48.560 M119.497 49.666 C 119.497 51.263,130.195 90.057,132.340 96.235 C 135.599 105.625,138.898 108.092,148.270 108.149 C 154.002 108.183,153.962 107.652,149.324 122.337 C 145.279 135.144,145.290 135.500,149.743 135.072 C 153.255 134.735,155.719 133.233,157.362 130.427 C 158.842 127.901,183.116 50.218,182.736 49.227 C 182.307 48.110,175.865 48.192,173.638 49.343 C 171.149 50.631,170.511 52.248,163.780 74.351 C 156.541 98.117,156.543 98.113,150.568 98.113 C 143.955 98.113,143.393 97.045,136.842 72.013 C 131.170 50.342,131.194 50.408,128.528 49.294 C 125.175 47.893,119.497 48.126,119.497 49.666 M304.575 57.857 C 307.639 59.348,309.064 62.516,309.094 67.897 L 309.119 72.642 294.025 72.642 L 278.931 72.642 278.994 69.182 C 279.099 63.466,281.748 59.377,286.520 57.565 C 289.636 56.382,301.955 56.581,304.575 57.857 M232.556 58.190 C 238.482 59.950,240.508 64.662,240.525 76.730 C 240.552 95.580,233.736 101.352,214.367 98.879 C 207.130 97.955,207.547 99.199,207.547 78.537 C 207.547 60.257,207.816 58.134,210.186 57.681 C 214.122 56.929,229.485 57.278,232.556 58.190 " stroke="none" fill="#000000" fill-rule="evenodd"></path></g></svg>