<svg id="svg" xmlns="http://www.w3.org/2000/svg" xmlns:xlink="http://www.w3.org/1999/xlink" width="400" height="134.10404624277456" viewBox="0, 0, 400,134.10404624277456"><g id="svgg"><path id="path0" d="M24.535 18.941 C 16.627 21.374,16.985 20.012,10.476 72.447 C 4.952 116.938,4.994 113.295,10.015 113.295 C 19.228 113.295,18.588 115.252,23.892 70.906 C 28.823 29.682,28.739 30.058,33.020 30.058 C 38.252 30.058,37.989 29.326,45.479 64.678 C 52.531 97.962,53.631 101.723,57.033 104.186 C 61.638 107.522,75.022 107.828,81.081 104.737 C 85.523 102.471,86.256 100.276,94.511 64.540 C 102.342 30.643,102.556 30.058,107.154 30.058 C 111.901 30.058,111.768 29.472,116.510 71.202 C 120.864 109.516,120.914 109.830,122.920 111.556 C 125.058 113.395,133.495 114.134,134.463 112.567 C 135.448 110.973,125.724 27.803,124.132 24.205 C 121.704 18.716,111.566 16.212,100.818 18.446 C 91.458 20.392,91.269 20.817,82.109 60.495 C 73.946 95.856,74.318 94.798,70.058 94.798 C 65.694 94.798,65.610 94.554,58.210 60.165 C 50.932 26.342,49.944 22.874,46.954 20.646 C 42.949 17.661,31.516 16.792,24.535 18.941 M338.332 39.343 C 319.464 41.392,311.423 50.897,310.098 72.718 C 308.199 104.003,317.130 113.746,347.592 113.622 C 367.043 113.543,373.796 110.634,373.796 102.338 L 373.796 99.978 369.750 100.496 C 336.684 104.732,325.063 101.066,324.908 86.352 L 324.855 81.310 349.904 80.925 C 378.948 80.478,376.879 81.065,376.879 73.273 C 376.879 45.644,366.273 36.308,338.332 39.343 M165.955 40.072 C 160.375 41.243,158.107 42.900,155.887 47.427 C 153.164 52.978,153.707 53.449,161.515 52.315 C 170.483 51.011,191.008 51.117,193.793 52.480 C 197.917 54.499,199.229 57.239,199.229 63.831 L 199.229 69.750 192.678 70.286 C 151.380 73.668,151.056 73.834,150.939 91.578 C 150.846 105.880,154.399 110.828,166.284 112.947 C 177.251 114.903,209.567 113.888,212.596 111.493 C 214.278 110.163,213.441 57.354,211.651 51.820 C 210.017 46.768,206.746 42.964,202.495 41.171 C 198.792 39.609,172.000 38.803,165.955 40.072 M244.573 40.008 C 240.076 40.556,237.944 42.118,235.702 46.510 C 232.991 51.823,232.650 51.741,254.919 51.155 C 287.730 50.292,287.539 49.602,260.520 71.376 C 234.782 92.119,231.761 95.667,231.658 105.272 C 231.564 113.990,229.280 113.385,261.333 113.130 C 292.616 112.880,291.539 113.097,294.987 106.349 C 297.494 101.443,297.867 101.516,271.059 101.679 C 239.416 101.871,239.776 102.853,264.322 83.314 C 293.230 60.302,294.374 58.979,294.384 48.555 C 294.390 40.990,294.211 40.782,286.987 40.025 C 280.035 39.296,250.516 39.285,244.573 40.008 M355.910 51.632 C 360.355 53.649,362.406 58.072,362.079 64.934 L 361.850 69.750 343.353 69.750 L 324.855 69.750 324.611 67.621 C 323.885 61.308,328.959 52.880,334.562 51.092 C 339.258 49.593,352.135 49.919,355.910 51.632 M199.446 90.342 C 199.752 103.076,198.455 103.915,179.707 103.119 C 167.668 102.608,164.162 100.067,164.162 91.855 C 164.162 82.943,169.457 80.912,191.908 81.212 L 199.229 81.310 199.446 90.342 " stroke="none" fill="#000000" fill-rule="evenodd"></path></g></svg>